<?xml version="1.0" encoding="UTF-8"?>
<svg version="1.1" xmlns="http://www.w3.org/2000/svg" width="512" height="512">
    <path d="M0 0 C4.8846525 2.26787438 7.73212562 5.1153475 10 10 C11.00666918 17.47811387 10.49039768 21.8582249 6 28 C4.08295314 30.17631985 2.04939209 32.2196207 -0.00956726 34.26124954 C-0.61066854 34.8652577 -1.21176981 35.46926586 -1.83108628 36.09157729 C-3.84711563 38.11490719 -5.8701915 40.13103872 -7.89331055 42.14727783 C-9.35451527 43.61078695 -10.81528372 45.07473177 -12.27565289 46.53907466 C-16.2905496 50.56233072 -20.3116732 54.5793125 -24.33384466 58.595294 C-28.67013065 62.92706127 -33.00066563 67.26457131 -37.3319397 71.60134888 C-45.32701496 79.60481097 -53.32664257 87.60370137 -61.32864729 95.60023353 C-68.7196833 102.98623957 -76.10885909 110.3741003 -83.4961853 117.76381683 C-83.98609661 118.25388091 -84.47600791 118.74394498 -84.98076501 119.24885948 C-86.96942272 121.23813986 -88.95807337 123.22742731 -90.94671239 125.21672638 C-109.60161645 143.87774856 -128.26234853 162.53293308 -146.92569308 181.18551328 C-163.51298258 197.76330859 -180.09508995 214.34627068 -196.67285156 230.93359375 C-215.29423312 249.56567952 -233.91883514 268.19453633 -252.54866123 286.81817889 C-254.53371876 288.80259497 -256.5187684 290.78701893 -258.5038147 292.77144623 C-258.99259427 293.26006765 -259.48137385 293.74868907 -259.98496493 294.2521172 C-267.37201726 301.6368928 -274.75659534 309.02413649 -282.13998413 316.41257477 C-290.53209476 324.81039609 -298.92785086 333.2045538 -307.32815337 341.59418252 C-311.6166635 345.87742357 -315.90353514 350.16227187 -320.18611526 354.45144272 C-324.10231149 358.37357478 -328.02305158 362.29110264 -331.94755232 366.20492467 C-333.37050666 367.62563494 -334.79175715 369.04805412 -336.21117437 370.47229829 C-338.13303892 372.40019908 -340.06089009 374.32190349 -341.99043274 376.24211502 C-342.54671958 376.80308419 -343.10300642 377.36405337 -343.67615044 377.94202161 C-348.36334657 382.58368177 -351.28694848 384.29118255 -357.875 384.375 C-363.08266907 384.27363418 -366.10580633 383.69948398 -370 380 C-374.41415841 375.35351746 -374.46758261 371.11206934 -374.53125 365 C-373.11936106 357.02698011 -365.73616651 351.49529445 -360.23828125 346.078125 C-359.28181206 345.1279353 -358.32586224 344.17722255 -357.3704071 343.22601318 C-354.86800439 340.73684265 -352.36007525 338.25332355 -349.85046387 335.77142334 C-345.82232433 331.78660573 -341.80107745 327.7948596 -337.78294945 323.79994965 C-336.3799193 322.40714183 -334.97334269 321.01790947 -333.56672668 319.62872314 C-332.29486763 318.36666046 -332.29486763 318.36666046 -330.99731445 317.07910156 C-330.2477095 316.33774963 -329.49810455 315.59639771 -328.7257843 314.83258057 C-326.9321277 313.10394346 -326.9321277 313.10394346 -326 311 C-327.0209375 310.64421875 -327.0209375 310.64421875 -328.0625 310.28125 C-331.64005767 308.72082591 -334.77985738 306.67895624 -338 304.5 C-338.65863037 304.05640137 -339.31726074 303.61280273 -339.99584961 303.15576172 C-367.74435158 284.27437509 -393.57009706 260.46036144 -413.75292969 233.64111328 C-414.98298924 232.02238574 -416.23960912 230.42880473 -417.5078125 228.83984375 C-438.78111401 202.03847424 -438.78111401 202.03847424 -438.48828125 189.26171875 C-437.59451702 183.29137366 -434.39314434 178.85774184 -431 174 C-430.56042969 173.35369629 -430.12085938 172.70739258 -429.66796875 172.04150391 C-420.68004107 158.82887881 -411.12756676 146.14297358 -400.24609375 134.4296875 C-398.37745905 132.40831222 -396.586462 130.35347657 -394.8125 128.25 C-386.65995873 118.87457754 -377.59640008 109.89111645 -368 102 C-367.47954102 101.56042969 -366.95908203 101.12085938 -366.42285156 100.66796875 C-319.13382569 60.73157374 -258.27990111 32.2863071 -195.54296875 31.76171875 C-194.56991287 31.7519249 -193.59685699 31.74213104 -192.59431458 31.73204041 C-151.71550743 31.40541645 -114.31831571 36.77594913 -76.17407227 52.11914062 C-75.48217049 52.39671204 -74.79026871 52.67428345 -74.07740021 52.96026611 C-72.3846485 53.63946761 -70.69228454 54.31963535 -69 55 C-68.34489441 54.34045319 -67.68978882 53.68090637 -67.01483154 53.00137329 C-60.84030909 46.78677739 -54.66098636 40.57700354 -48.47622299 34.37259865 C-45.29674443 31.18268275 -42.11915321 27.99093308 -38.94580078 24.79492188 C-35.88330199 21.71069315 -32.81594407 18.63137507 -29.74515533 15.55540085 C-28.57443094 14.38098099 -27.40546835 13.20480214 -26.23830414 12.02684402 C-24.60327698 10.37730016 -22.96209844 8.7341206 -21.31933594 7.09228516 C-20.8381279 6.60388657 -20.35691986 6.11548798 -19.86112976 5.61228943 C-13.73971967 -0.4718412 -8.43017599 -0.90404032 0 0 Z M-326 112 C-326.5676709 112.41604492 -327.1353418 112.83208984 -327.72021484 113.26074219 C-331.54895049 116.08994561 -335.29035156 119.01687707 -339 122 C-340.01449219 122.80824219 -341.02898437 123.61648437 -342.07421875 124.44921875 C-350.28488562 131.16006544 -357.80156204 138.59099443 -365.3125 146.0625 C-365.8244693 146.56920227 -366.3364386 147.07590454 -366.86392212 147.59796143 C-373.71114937 154.39068544 -380.04536853 161.3946933 -386 169 C-386.61625244 169.7835083 -387.23250488 170.5670166 -387.86743164 171.37426758 C-389.55010824 173.53120213 -391.2156329 175.70010137 -392.875 177.875 C-393.70644531 178.95394531 -393.70644531 178.95394531 -394.5546875 180.0546875 C-396.05848838 182.02119635 -397.53456929 184.00481771 -399 186 C-399.66257812 186.88945312 -400.32515625 187.77890625 -401.0078125 188.6953125 C-402.26509869 190.98509687 -402.26509869 190.98509687 -401.41015625 193.4921875 C-396.41381791 202.37764239 -389.52759996 210.21469368 -383 218 C-382.57267578 218.51900879 -382.14535156 219.03801758 -381.70507812 219.57275391 C-370.85610212 232.74819755 -359.06250107 245.42449012 -345.59765625 255.96484375 C-342.70307116 258.23263147 -339.92116688 260.6121391 -337.125 263 C-331.58020094 267.61829022 -325.84540731 271.82132548 -319.82275391 275.79541016 C-318.5211248 276.65560812 -317.22444804 277.52331911 -315.93115234 278.39599609 C-313.77796031 279.84454234 -311.61031596 281.26859881 -309.4375 282.6875 C-308.75848633 283.14640625 -308.07947266 283.6053125 -307.37988281 284.078125 C-305.24345074 285.4986344 -305.24345074 285.4986344 -302 287 C-298.68890904 285.87816458 -296.58245926 283.82617473 -294.14941406 281.37646484 C-293.40894836 280.63584808 -292.66848267 279.89523132 -291.90557861 279.13217163 C-291.11689392 278.33316437 -290.32820923 277.5341571 -289.515625 276.7109375 C-288.70003113 275.89251373 -287.88443726 275.07408997 -287.04412842 274.23086548 C-284.44135438 271.61690027 -281.84562238 268.99606495 -279.25 266.375 C-277.4861366 264.60110546 -275.7218191 262.82766234 -273.95703125 261.0546875 C-269.63273864 256.70834858 -265.3142067 252.35634919 -261 248 C-261.41273163 247.24699615 -261.82546326 246.49399231 -262.2507019 245.71817017 C-262.79171539 244.72916718 -263.33272888 243.74016418 -263.89013672 242.72119141 C-264.42661835 241.74131256 -264.96309998 240.76143372 -265.51583862 239.75186157 C-277.41217543 217.69423857 -281.42352248 191.2471922 -274.90722656 166.75708008 C-267.15345477 140.9468908 -250.71937194 119.97700031 -227 107 C-205.19260181 95.95634678 -178.50617109 92.59469632 -154.828125 99.6640625 C-144.6428492 103.07492111 -135.39322573 107.78154126 -126 113 C-115.77 102.77 -105.54 92.54 -95 82 C-105.49305619 71.50694381 -130.83337175 69.48452609 -145 67 C-145.70382812 66.87399414 -146.40765625 66.74798828 -147.1328125 66.61816406 C-209.29365056 55.84233977 -275.70339364 75.07130771 -326 112 Z M-225 145 C-237.17478996 156.78023658 -244.93958002 171.09197212 -245.29199219 188.19677734 C-245.38683324 200.87160657 -244.22870572 212.15694143 -237 223 C-231.72120513 218.58936273 -226.80371109 213.94167559 -221.95336914 209.06689453 C-221.18181488 208.2954863 -220.41026062 207.52407806 -219.61532593 206.72929382 C-217.08622282 204.19949856 -214.56067225 201.66618838 -212.03515625 199.1328125 C-210.2741802 197.36996979 -208.51298205 195.60734891 -206.75157166 193.84494019 C-202.13147933 189.22104219 -197.51439888 184.59414819 -192.89794922 179.96661377 C-188.18080732 175.23867011 -183.46026249 170.51412441 -178.74023438 165.7890625 C-169.49069965 156.52882486 -160.24424835 147.26551475 -151 138 C-158.27162347 130.3014918 -170.79994153 128.61169896 -180.99462891 128.04736328 C-197.73881467 127.65189554 -212.63519221 134.0031379 -225 145 Z "
          fill="#EEEEEE" transform="translate(438,64)"/>
    <path d="M0 0 C2.66264819 1.27331779 4.70937414 2.98471152 6.96850586 4.8815918 C8.42063477 6.09975586 8.42063477 6.09975586 9.90209961 7.3425293 C13.48901044 10.43880027 17.02256472 13.58666587 20.52319336 16.7800293 C22.53748317 18.60441974 24.584992 20.37252982 26.65600586 22.1315918 C35.33857107 29.70236512 43.43154519 38.07176135 50.84350586 46.8815918 C52.03459961 48.23897461 52.03459961 48.23897461 53.24975586 49.6237793 C86.53536248 87.77866439 86.53536248 87.77866439 86.29663086 104.54956055 C85.47756548 110.57251542 82.25645795 114.9954925 78.84350586 119.8815918 C78.40393555 120.52789551 77.96436523 121.17419922 77.51147461 121.84008789 C68.52354693 135.05271299 58.97107262 147.73861821 48.08959961 159.4519043 C46.22096491 161.47327958 44.42996786 163.52811523 42.65600586 165.6315918 C34.50346459 175.00701425 25.43990594 183.99047535 15.84350586 191.8815918 C15.06281738 192.54094727 15.06281738 192.54094727 14.26635742 193.21362305 C-22.22842436 224.03409343 -64.81783205 246.04783382 -111.46899414 256.5690918 C-112.29592773 256.75955078 -113.12286133 256.95000977 -113.97485352 257.14624023 C-131.39742158 260.8852408 -148.91789621 262.38767491 -166.70874023 262.27270508 C-169.65663873 262.25659101 -172.6031671 262.27269809 -175.55102539 262.29174805 C-193.39272771 262.31207015 -211.01453566 260.44758511 -228.40649414 256.3815918 C-229.30754883 256.18178711 -230.20860352 255.98198242 -231.13696289 255.77612305 C-237.53037799 254.33599942 -243.84665059 252.64968469 -250.15649414 250.8815918 C-249.44458511 244.86256195 -243.57017439 240.37887415 -239.54125977 236.21606445 C-238.45619681 235.08141529 -237.38746193 233.93091148 -236.33618164 232.76489258 C-227.64233829 223.12903417 -227.64233829 223.12903417 -221.80859375 222.54833984 C-218.45977537 223.06057565 -215.3887823 223.87681547 -212.15649414 224.8815918 C-210.46547028 225.18654592 -208.76859769 225.46149412 -207.06665039 225.69799805 C-206.27452148 225.82207031 -205.48239258 225.94614258 -204.66625977 226.07397461 C-141.74990777 235.58925689 -77.31300807 218.44164402 -26.15649414 180.8815918 C-25.58882324 180.46554687 -25.02115234 180.04950195 -24.4362793 179.62084961 C-20.60757173 176.79166693 -16.86514715 173.86593433 -13.15649414 170.8815918 C-12.13040039 170.06174805 -11.10430664 169.2419043 -10.04711914 168.3972168 C-2.03810835 161.83699295 5.32184917 154.61293481 12.65600586 147.3190918 C13.14405701 146.83630768 13.63210815 146.35352356 14.13494873 145.85610962 C20.83246903 139.21454057 27.01980355 132.30578584 32.84350586 124.8815918 C33.76885132 123.70536255 33.76885132 123.70536255 34.71289062 122.50537109 C36.39474287 120.34896353 38.059698 118.18075743 39.71850586 116.0065918 C40.27280273 115.28729492 40.82709961 114.56799805 41.39819336 113.8269043 C42.90199424 111.86039545 44.37807515 109.87677409 45.84350586 107.8815918 C46.50608398 106.99213867 47.16866211 106.10268555 47.85131836 105.1862793 C49.08374937 102.92552455 49.08374937 102.92552455 48.37084961 100.5378418 C46.30261507 96.94091217 43.92472854 93.67472771 41.40600586 90.3815918 C40.87322021 89.6788916 40.34043457 88.97619141 39.79150391 88.25219727 C34.70194142 81.59505255 29.35567803 75.1908056 23.84350586 68.8815918 C23.1306543 68.0565918 22.41780273 67.2315918 21.68334961 66.3815918 C11.64581735 54.97445234 0.90015987 44.14813653 -11.15649414 34.8815918 C-12.34546271 33.95993153 -13.53425531 33.03804423 -14.72290039 32.1159668 C-17.85731529 29.69109616 -21.00370955 27.28251997 -24.15649414 24.8815918 C-23.41474103 19.07945276 -18.26758001 15.47338945 -14.32861328 11.55273438 C-12.84529652 10.07039332 -11.38460494 8.56798644 -9.92407227 7.06323242 C-8.52898437 5.66427734 -8.52898437 5.66427734 -7.10571289 4.23706055 C-6.25323975 3.37749756 -5.4007666 2.51793457 -4.52246094 1.63232422 C-2.15649414 -0.1184082 -2.15649414 -0.1184082 0 0 Z "
          fill="#EEEEEE" transform="translate(426.156494140625,154.118408203125)"/>
    <path d="M0 0 C0.99 0.33 1.98 0.66 3 1 C9.30093744 26.40314652 5.0512602 52.85200019 -7.9140625 75.31640625 C-22.2533811 97.68231555 -43.74049581 113.62277038 -69.68286133 119.87060547 C-84.10372861 122.76212755 -100.73149774 122.53912615 -115 119 C-115 113.95648319 -113.02488407 112.2857905 -109.7265625 108.84375 C-109.16995941 108.25960327 -108.61335632 107.67545654 -108.03988647 107.0736084 C-106.85027347 105.83740341 -105.65448914 104.60711239 -104.453125 103.38232422 C-102.66017087 101.53621359 -100.92154093 99.64810983 -99.1796875 97.75390625 C-91.50731804 89.73448986 -85.17260875 86.25708514 -74.15576172 84.71777344 C-61.03364784 82.84580314 -49.28199453 73.43838083 -41.25 63.375 C-36.2480175 56.33157234 -31.55295231 48.4661768 -30.66967773 39.73461914 C-29.18436848 27.27375867 -22.7831576 21.33610955 -13.8125 13.0625 C-12.47445612 11.78478243 -11.13914317 10.50419858 -9.80664062 9.22070312 C-6.56827078 6.11322213 -3.29552274 3.0467559 0 0 Z "
          fill="#EEEEEE" transform="translate(347,231)"/>
</svg>
