<?xml version="1.0" encoding="UTF-8"?>
<svg version="1.1" xmlns="http://www.w3.org/2000/svg" width="512" height="512">
    <path d="M0 0 C1.49506828 -0.00855011 1.49506828 -0.00855011 3.02033997 -0.01727295 C5.12381958 -0.02666591 7.22731353 -0.03323404 9.33081055 -0.03710938 C12.46626386 -0.04671187 15.60103092 -0.07774776 18.73632812 -0.109375 C36.72949306 -0.20400831 54.45734698 1.46978769 72.01953125 5.515625 C73.43419678 5.83527222 73.43419678 5.83527222 74.87744141 6.16137695 C136.86298833 20.52210697 194.71219709 57.06222583 235.33203125 106.203125 C235.77981934 106.73711914 236.22760742 107.27111328 236.68896484 107.82128906 C270.00239232 147.61025989 270.00239232 147.61025989 269.78515625 162.87109375 C268.96609087 168.89404862 265.74498334 173.3170257 262.33203125 178.203125 C261.89246094 178.84942871 261.45289063 179.49573242 261 180.16162109 C252.01207232 193.37424619 242.45959801 206.06015142 231.578125 217.7734375 C229.7094903 219.79481278 227.91849325 221.84964843 226.14453125 223.953125 C217.99198998 233.32854746 208.92843133 242.31200855 199.33203125 250.203125 C198.55134277 250.86248047 198.55134277 250.86248047 197.75488281 251.53515625 C161.26010103 282.35562663 118.67069334 304.36936702 72.01953125 314.890625 C71.19259766 315.08108398 70.36566406 315.27154297 69.51367188 315.46777344 C51.05271158 319.42961997 32.54557536 320.76021856 13.70703125 320.640625 C12.14462708 320.63556442 12.14462708 320.63556442 10.55065918 320.63040161 C-70.66734942 320.25118985 -140.85405959 283.46946483 -197.21484375 226.77124023 C-201.20706866 222.71633253 -205.04112267 218.59079623 -208.66796875 214.203125 C-209.11575684 213.66913086 -209.56354492 213.13513672 -210.02490234 212.58496094 C-243.33832982 172.79599011 -243.33832982 172.79599011 -243.12109375 157.53515625 C-242.30202837 151.51220138 -239.08092084 147.0892243 -235.66796875 142.203125 C-235.22839844 141.55682129 -234.78882813 140.91051758 -234.3359375 140.24462891 C-225.34800982 127.03200381 -215.79553551 114.34609858 -204.9140625 102.6328125 C-203.0454278 100.61143722 -201.25443075 98.55660157 -199.48046875 96.453125 C-191.32792748 87.07770254 -182.26436883 78.09424145 -172.66796875 70.203125 C-172.14750977 69.76355469 -171.62705078 69.32398438 -171.09082031 68.87109375 C-123.81427977 28.94524282 -62.7622984 0.2879928 0 0 Z M-130.66796875 80.203125 C-131.23563965 80.61916992 -131.80331055 81.03521484 -132.38818359 81.46386719 C-136.21691924 84.29307061 -139.95832031 87.22000207 -143.66796875 90.203125 C-144.68246094 91.01136719 -145.69695312 91.81960937 -146.7421875 92.65234375 C-154.95285437 99.36319044 -162.46953079 106.79411943 -169.98046875 114.265625 C-170.49243805 114.77232727 -171.00440735 115.27902954 -171.53189087 115.80108643 C-178.37911812 122.59381044 -184.71333728 129.5978183 -190.66796875 137.203125 C-191.28422119 137.9866333 -191.90047363 138.7701416 -192.53540039 139.57739258 C-194.21807699 141.73432713 -195.88360165 143.90322637 -197.54296875 146.078125 C-198.37441406 147.15707031 -198.37441406 147.15707031 -199.22265625 148.2578125 C-200.72645713 150.22432135 -202.20253804 152.20794271 -203.66796875 154.203125 C-204.33054688 155.09257812 -204.993125 155.98203125 -205.67578125 156.8984375 C-206.93229577 159.18739343 -206.93229577 159.18739343 -206.08203125 161.69140625 C-201.31903868 170.15163892 -194.82806787 177.72843683 -188.66796875 185.203125 C-187.86488281 186.193125 -187.06179687 187.183125 -186.234375 188.203125 C-179.91791719 195.8608354 -173.10258553 202.97769428 -166.10546875 210.015625 C-165.24348877 210.88678955 -164.38150879 211.7579541 -163.4934082 212.65551758 C-157.52752787 218.59316375 -151.25001588 223.9635497 -144.66796875 229.203125 C-143.12536265 230.47281784 -141.58355242 231.74347901 -140.04296875 233.015625 C-106.04280561 259.90810973 -66.51974366 278.15833207 -23.66796875 285.203125 C-22.42789063 285.41582031 -21.1878125 285.62851562 -19.91015625 285.84765625 C42.20326924 295.33531135 107.01977649 277.14330663 157.33203125 240.203125 C157.89970215 239.78708008 158.46737305 239.37103516 159.05224609 238.94238281 C162.88098174 236.11317939 166.62238281 233.18624793 170.33203125 230.203125 C171.34652344 229.39488281 172.36101562 228.58664062 173.40625 227.75390625 C181.61691687 221.04305956 189.13359329 213.61213057 196.64453125 206.140625 C197.15650055 205.63392273 197.66846985 205.12722046 198.19595337 204.60516357 C205.04318062 197.81243956 211.37739978 190.8084317 217.33203125 183.203125 C217.94828369 182.4196167 218.56453613 181.6361084 219.19946289 180.82885742 C220.88213949 178.67192287 222.54766415 176.50302363 224.20703125 174.328125 C224.76132812 173.60882813 225.315625 172.88953125 225.88671875 172.1484375 C227.39051963 170.18192865 228.86660054 168.19830729 230.33203125 166.203125 C230.99460937 165.31367188 231.6571875 164.42421875 232.33984375 163.5078125 C233.59635827 161.21885657 233.59635827 161.21885657 232.74609375 158.71484375 C227.98310118 150.25461108 221.49213037 142.67781317 215.33203125 135.203125 C214.12740234 133.718125 214.12740234 133.718125 212.8984375 132.203125 C206.58197969 124.5454146 199.76664803 117.42855572 192.76953125 110.390625 C191.90755127 109.51946045 191.04557129 108.6482959 190.1574707 107.75073242 C184.19147692 101.81297334 177.92342246 96.43237682 171.33203125 91.203125 C170.12831561 90.22598756 168.92509676 89.2482374 167.72265625 88.26953125 C133.46302595 60.79472436 93.63539994 42.66691736 50.33203125 35.203125 C49.63255371 35.07856934 48.93307617 34.95401367 48.21240234 34.82568359 C-13.95167771 24.04162961 -80.36791754 43.27190344 -130.66796875 80.203125 Z "
          fill="#EEEEEE" transform="translate(242.66796875,95.796875)"/>
    <path d="M0 0 C19.41513413 15.83036047 34.05409201 37.67987498 37 63 C39.00706443 91.38316441 34.11130766 116.2402984 15.84375 138.64453125 C-0.57892148 157.46699451 -22.83614019 171.43272251 -48.21777344 173.22753906 C-76.8329536 174.49950262 -101.20094475 168.80835389 -123.1875 149.625 C-141.72962913 132.23989973 -154.23970686 110.00534464 -155.3828125 84.2890625 C-156.09445376 55.78869783 -149.21659255 31.57486407 -129.3359375 10.37109375 C-94.83017582 -24.65398542 -39.47352935 -30.18232772 0 0 Z M-104.75 32.1875 C-119.09163705 47.60207747 -122.87326731 64.89389156 -122.18359375 85.34960938 C-121.79597225 90.94537929 -120.23197745 95.85547493 -118 101 C-117.63777344 101.87527344 -117.27554688 102.75054687 -116.90234375 103.65234375 C-109.86685408 119.13042103 -96.51841767 130.83848774 -80.9375 137.25 C-63.91331734 142.96474679 -45.88616431 141.80499822 -29.75927734 133.93896484 C-14.2223386 125.6465604 -2.73777204 111.42377001 2.50854492 94.73461914 C6.17538282 81.22086192 5.57788951 65.85657811 0 53 C-0.54333984 51.68708984 -0.54333984 51.68708984 -1.09765625 50.34765625 C-8.13314592 34.86957897 -21.48158233 23.16151226 -37.0625 16.75 C-61.48382825 8.55214933 -85.96900596 15.09419897 -104.75 32.1875 Z "
          fill="#EEEEEE" transform="translate(315,179)"/>
</svg>
