<?xml version="1.0" encoding="UTF-8"?>
<svg version="1.1" xmlns="http://www.w3.org/2000/svg" width="32" height="32">
<path d="M0 0 C-0.56883983 4.0841127 -1.47858263 7.59660629 -3.06640625 11.3984375 C-3.46923828 12.37167969 -3.87207031 13.34492188 -4.28710938 14.34765625 C-4.70798828 15.34667969 -5.12886719 16.34570312 -5.5625 17.375 C-5.98724609 18.39722656 -6.41199219 19.41945313 -6.84960938 20.47265625 C-7.89412119 22.98417905 -8.94439049 25.49312619 -10 28 C-13.36599123 27.27159055 -14.6446105 26.63677563 -16.75 23.875 C-19.63751552 20.27671143 -22.86776887 17.45804293 -26.4609375 14.578125 C-28 13 -28 13 -28 10 C-23.89921069 8.3249356 -19.79384364 6.66139655 -15.6875 5 C-14.52025391 4.52304688 -13.35300781 4.04609375 -12.15039062 3.5546875 C-11.03212891 3.10351562 -9.91386719 2.65234375 -8.76171875 2.1875 C-7.73006592 1.76855469 -6.69841309 1.34960938 -5.63549805 0.91796875 C-3 0 -3 0 0 0 Z " fill="#8DC8F8" transform="translate(30,2)"/>
<path d="M0 0 C1.1916143 3.57484289 0.74788456 4.28587882 -0.65234375 7.66796875 C-1.01650391 8.56064453 -1.38066406 9.45332031 -1.75585938 10.37304688 C-2.14580078 11.30181641 -2.53574219 12.23058594 -2.9375 13.1875 C-3.32357422 14.12787109 -3.70964844 15.06824219 -4.10742188 16.03710938 C-5.06321649 18.36169628 -6.02767007 20.68229199 -7 23 C-10.26011642 22.30621489 -11.79038253 21.54106009 -14 19 C-12.52260227 14.67960987 -10.30953519 11.44363846 -7.5625 7.8125 C-6.78003906 6.76707031 -5.99757813 5.72164062 -5.19140625 4.64453125 C-3 2 -3 2 0 0 Z " fill="#8DC8F8" transform="translate(27,7)"/>
<path d="M0 0 C0 4.08437549 -1.6183409 5.24364592 -4.25 8.3125 C-7.43529106 12.09471963 -10.3914361 15.80361459 -13 20 C-14.98 18.35 -16.96 16.7 -19 15 C-15.47386038 11.18304474 -11.44625082 8.27225248 -7.25 5.25 C-6.55261719 4.74339844 -5.85523438 4.23679687 -5.13671875 3.71484375 C-3.42678278 2.47338339 -1.71370384 1.23625401 0 0 Z " fill="#247ED5" transform="translate(26,5)"/>
</svg>
