<svg xmlns="http://www.w3.org/2000/svg" enable-background="new 0 0 70 70" viewBox="0 0 70 70" id="Setting">
  <path d="M58.0959473,39.0869141c0.4135742-0.1328125,0.6938477-0.5175781,0.6938477-0.9521484v-6.2402344
	c0-0.4345703-0.2807617-0.8193359-0.6943359-0.9521484l-5.8862305-1.8876953
	c-0.2607422-0.7246094-0.527832-1.3701172-0.8081055-1.9541016l2.8291016-5.5195313
	c0.1977539-0.3857422,0.1240234-0.8554688-0.1821289-1.1621094l-4.4101563-4.4199219
	c-0.3066406-0.3085938-0.7758789-0.3808594-1.1621094-0.1845703l-5.5205078,2.8154297
	c-0.6206055-0.3095703-1.2827148-0.5859375-1.9785156-0.8261719l-1.8842773-5.8935547
	c-0.1328125-0.4140625-0.5175781-0.6953125-0.9526367-0.6953125h-6.2397461c-0.4335938,0-0.8178711,0.2792969-0.9516602,0.6923828
	l-1.9047852,5.890625c-0.5966797,0.2070313-1.2832031,0.4716797-1.9794922,0.8193359l-5.4868164-2.8222656
	c-0.3876953-0.1982422-0.8583984-0.1240234-1.1655273,0.1835938l-4.4199219,4.4306641
	c-0.3056641,0.3066406-0.3793945,0.7744141-0.1826172,1.1601563l2.7973633,5.484375
	c-0.3144531,0.6396484-0.5869141,1.3017578-0.8139648,1.9775391l-5.8696289,1.8916016
	c-0.4121094,0.1328125-0.6918945,0.515625-0.6933594,0.9492188l-0.0195313,6.2402344
	c-0.0014648,0.4345703,0.277832,0.8193359,0.690918,0.9541016l5.8930664,1.9140625
	c0.2246094,0.6328125,0.4916992,1.2705078,0.8178711,1.9541016l-2.8125,5.5048828
	c-0.1967773,0.3857422-0.1235352,0.8535156,0.1821289,1.1601563l4.3999023,4.4199219
	c0.3061523,0.3076172,0.7758789,0.3857422,1.1621094,0.1855469l5.5175781-2.8095703
	c0.6499023,0.3183594,1.2954102,0.5888672,1.9541016,0.8183594l1.9140625,5.8808594
	c0.1337891,0.4121094,0.5175781,0.6904297,0.9506836,0.6904297h6.2397461c0.4331055,0,0.8168945-0.2783203,0.9506836-0.6904297
	l1.9160156-5.8847656c0.6914063-0.2451172,1.3354492-0.5107422,1.9482422-0.8046875l5.5107422,2.8105469
	c0.3876953,0.1962891,0.8540039,0.1220703,1.1611328-0.1826172l4.409668-4.4003906
	c0.3061523-0.3056641,0.3813477-0.7744141,0.1850586-1.1601563l-2.8071289-5.5322266
	c0.2939453-0.5927734,0.5625-1.2402344,0.8129883-1.9589844L58.0959473,39.0869141z M49.3781738,43.3867188l2.7114258,5.3427734
	l-3.3818359,3.375l-5.3129883-2.7099609c-0.2880859-0.1484375-0.6274414-0.1464844-0.9135742,0.0019531
	c-0.7924805,0.4101563-1.6445313,0.7626953-2.6040039,1.078125c-0.3022461,0.0996094-0.5395508,0.3378906-0.6376953,0.640625
	l-1.8457031,5.6699219h-4.7875977l-1.8457031-5.6699219c-0.0996094-0.3066406-0.3417969-0.546875-0.6494141-0.6435547
	c-0.8764648-0.2773438-1.7231445-0.6318359-2.5883789-1.0839844c-0.2861328-0.1484375-0.6279297-0.1513672-0.9165039-0.0039063
	l-5.3212891,2.7089844l-3.3740234-3.3896484l2.7094727-5.3037109c0.1445313-0.2832031,0.1459961-0.6181641,0.0039063-0.9023438
	c-0.4750977-0.9501953-0.8222656-1.7822266-1.0927734-2.6201172c-0.0986328-0.3046875-0.3374023-0.5439453-0.6425781-0.6435547
	l-5.6762695-1.84375l0.0146484-4.7851563l5.6694336-1.8271484c0.3134766-0.1015625,0.5571289-0.3505859,0.6513672-0.6660156
	c0.2675781-0.8945313,0.625-1.7636719,1.0639648-2.5859375c0.1538086-0.2880859,0.1572266-0.6337891,0.0083008-0.9248047
	l-2.699707-5.2929688l3.3911133-3.3994141l5.3007813,2.7265625c0.2983398,0.1513672,0.6523438,0.1464844,0.9443359-0.015625
	c0.7163086-0.3994141,1.4916992-0.7236328,2.59375-1.0839844c0.3041992-0.0986328,0.5424805-0.3378906,0.6411133-0.6425781
	l1.8359375-5.6777344h4.7822266l1.8173828,5.6845703c0.0996094,0.3105469,0.34375,0.5527344,0.6542969,0.6494141
	c0.9379883,0.2929688,1.809082,0.6582031,2.5888672,1.0839844c0.2900391,0.1572266,0.6396484,0.1630859,0.9335938,0.0126953
	l5.3320313-2.71875l3.3823242,3.3896484l-2.7285156,5.3222656c-0.1479492,0.2890625-0.1464844,0.6318359,0.0039063,0.9189453
	c0.3818359,0.7314453,0.7382813,1.5878906,1.0893555,2.6191406c0.1020508,0.2998047,0.3398438,0.5332031,0.6411133,0.6298828
	l5.6655273,1.8173828V37.40625l-5.6757813,1.8261719c-0.3066406,0.0986328-0.5463867,0.3388672-0.6455078,0.6445313
	c-0.3237305,1.0029297-0.6757813,1.8466797-1.0761719,2.5771484C49.2341309,42.7441406,49.2287598,43.0927734,49.3781738,43.3867188
	z" fill="#ffffff" class="color000000 svgShape"></path>
  <path d="M36.2541504,25.5644531c-5.2006836-0.6933594-9.9995117,2.9775391-10.6933594,8.1796875
	c-0.3364258,2.5244141,0.3271484,5.0292969,1.8691406,7.0517578c1.5439453,2.0244141,3.7836914,3.3251953,6.3076172,3.6611328
	c0.425293,0.0566406,0.8476563,0.0839844,1.265625,0.0839844c4.7050781,0,8.8120117-3.4921875,9.449707-8.2802734
	C45.1462402,31.0585938,41.4685059,26.2597656,36.2541504,25.5644531z M42.470459,35.9970703
	c-0.5483398,4.1201172-4.3393555,7.0273438-8.4692383,6.4775391c-1.9926758-0.265625-3.7617188-1.2919922-4.9804688-2.8916016
	c-1.21875-1.5986328-1.7436523-3.578125-1.4775391-5.5751953c0.5029297-3.7744141,3.7402344-6.5273438,7.4492188-6.5273438
	c0.3295898,0,0.6625977,0.0214844,0.9975586,0.0664063C40.111084,28.0966797,43.0178223,31.8867188,42.470459,35.9970703z" fill="#ffffff" class="color000000 svgShape"></path>
</svg>
