<svg xmlns="http://www.w3.org/2000/svg" enable-background="new 0 0 2000 2000" viewBox="0 0 2000 2000"><g><path fill="#ebf2ff" d="M356.2341919,1682.8144531c-38.2749939-37.7523193-180.653595-189.0625-149.5453949-323.5620117
		c21.2386932-91.8280029,104.9723053-101.4517822,122.3553009-198.4875488
		c23.5882874-131.675293-115.7541046-196.8132935-87.0082092-304.5288086
		c22.3414001-83.7172852,113.084198-69.0011597,220.2395935-174.0164795
		c156.9535828-153.8190308,93.6144104-314.1112061,201.2065125-361.6279907
		c105.2260742-46.4719238,175.6723022,102.4924011,448.6362915,174.0163879
		c227.0675049,59.4978943,345.6900635,0.2719116,399.6940918,84.2892761
		c64.0797119,99.692749-74.0032959,228.0914307-2.7189941,342.5949097
		c63.6898193,102.3046265,224.7485352,81.4559937,236.5535889,157.7023926
		c9.7008057,62.6557617-95.0626221,102.5424805-81.5701904,168.5784912
		c11.7681885,57.5966797,97.4703369,56.6461182,125.0743408,111.4793701
		c42.0112305,83.4521484-79.1020508,239.3927002-174.0164795,323.5620117H356.2341919z"/><g><path fill="#514593" d="M1853.8718262,1685.5334473c0,1.4901123-1.2000732,2.6901855-2.6801758,2.6901855H148.8117981
			c-1.5299988,0-2.7599945-1.2801514-2.6800079-2.8300781c0.0700073-1.4500732,1.3800049-2.5401611,2.8300018-2.5401611
			h1702.2298584C1852.6717529,1682.8533936,1853.8718262,1684.0534668,1853.8718262,1685.5334473z"/></g></g><g><circle cx="277.62" cy="748.551" r="8.303" fill="#ff6482"/><circle cx="983.884" cy="1526.771" r="8.303" fill="#ff6482"/><circle cx="1750.733" cy="1265.044" r="8.303" fill="#4ed066"/><circle cx="863.235" cy="358.289" r="8.303" fill="#4ed066"/><circle cx="210.583" cy="1407.469" r="8.303" fill="#514592"/><circle cx="1607.618" cy="590.439" r="8.303" fill="#514592"/></g><g><path fill="#4ed066" d="M367.9076843,1306.0668945c-0.774292,0-1.5101929-0.4584961-1.8222046-1.2213135
		c-4.3919983-10.6716309-1.7066956-51.4393311,1.4023132-98.6408691
		c3.9219055-59.5296631,8.8031006-133.6143799-2.2615051-145.434082c-1.5603027-1.6643066-3.3400879-1.8029785-5.0429993,0.0770264
		c-16.3617859,17.97229-7.123291,166.8504639,0.0464172,243.0617676c0.0999756,1.0864258-0.6974182,2.0456543-1.7800293,2.1497803
		c-1.0555725,0.0654297-2.0456848-0.6973877-2.1496887-1.7799072
		c-0.8515015-9.0689697-20.6419983-222.3503418,0.9631042-246.0859375c3.2052917-3.5251465,7.7398071-3.428833,10.8449097-0.1195068
		c12.2319031,13.0678711,7.7012939,81.8591309,3.3170776,148.388916
		c-2.9510803,44.7706299-5.7363892,87.0562744-1.6950684,96.8803711c0.4160767,1.0093994-0.0655212,2.1612549-1.0710144,2.5734863
		C368.412384,1306.0206299,368.1580811,1306.0668945,367.9076843,1306.0668945z"/><path fill="#4ed066" d="M373.435791,1306.0668945c-0.0465088,0-0.0957031-0.0028076-0.1420898-0.0081787
		c-0.7678223-0.0766602-1.3305969-0.7596436-1.2514038-1.5301514c0.0354919-0.3607178,3.7349854-36.5905762,15.2760925-73.3723145
		c15.6148987-49.7655029,37.3611145-76.8013916,64.6372986-80.3587646
		c10.7514954-1.3989258,17.0248108-0.0300293,19.1942139,4.1885986c5.1174927,9.961792-15.5848999,32.1177979-37.5004272,55.5743408
		c-15.349884,16.4318848-34.4566956,36.880127-30.7817993,41.4730225c0.8471069,1.0629883,1.7351074,1.5548096,2.7870178,1.5548096
		l0,0c4.5791931,0,11.6477051-8.8499756,18.4837952-17.4073486c10.7268066-13.4237061,21.8143921-27.3062744,31.5714111-20.80896
		c1.6447754,1.0955811,2.5820007,2.7841797,2.7131042,4.8852539c1.2130737,19.5166016-71.7767029,82.7851562-74.8833008,85.4708252
		c-0.5847168,0.4973145-1.4672241,0.4399414-1.9727173-0.1447754c-0.5054016-0.5847168-0.4425964-1.4699707,0.1420898-1.9753418
		c20.8800049-18.0275879,74.8587036-68.1182861,73.9215088-83.1757812
		c-0.0792847-1.2459717-0.5463867-2.1148682-1.4726868-2.7322998c-7.6202087-5.071167-18.3608093,8.3662109-27.8336182,20.2269287
		c-7.9126892,9.904541-14.7460022,18.4592285-20.6669006,18.4592285c-0.0026855,0-0.0026855,0-0.0026855,0
		c-1.9153137,0-3.59021-0.8742676-4.9726868-2.6037598c-4.9345093-6.1695557,8.5355835-21.1696777,30.9237671-45.1317139
		c18.3881226-19.680542,41.2737122-44.175293,37.0550232-52.3857422c-1.5217896-2.9591064-7.1694946-3.8880615-16.3444214-2.6912842
		c-62.5142822,8.1529541-77.3477783,149.802124-77.4925842,151.2337646
		C374.7526855,1305.5285645,374.1460876,1306.0668945,373.435791,1306.0668945z"/><path fill="#4ed066" d="M350.9873047,1307.9007568c-1.0364075,0-1.9032288-0.8052979-1.9686279-1.8493652
		c-10.1206665-163.4023438-38.2867737-190.3393555-43.8305969-194.0803223
		c-1.3329773-0.9014893-3.2823792-1.8530273-5.0007019-1.2828369c-0.3426819,0.1116943-0.843689,0.3736572-1.2712708,1.3214111
		c-2.9742126,6.6186523,3.6945801,27.7268066,9.4156799,42.9752197c1.9802246,4.3496094,3.6445007,8.5026855,4.9389038,12.3822021
		c0.3352051,1.0054932-0.1809998,2.0919189-1.17099,2.4694824c-0.9825134,0.3582764-2.099823-0.0963135-2.5158997-1.0671387
		c-0.6010132-1.4100342-2.5888977-6.1063232-4.9389038-12.3243408
		c-19.0123901-41.4650879-67.9746094-102.701416-89.2754059-109.3548584
		c-2.3846893-0.7474365-4.1954041-0.6895752-5.3587952,0.1849365c-2.303894,1.7297363-3.5328979,3.729248-3.7485962,6.1217041
		c-0.8630066,9.4733887,13.298996,24.8066406,31.2287903,44.2196045
		c5.1316071,5.5515137,10.6061096,11.4805908,16.2078094,17.7796631
		c28.1813965,31.7064209,68.047699,114.7753906,77.3053894,134.4658203c0.6625977,1.302124,1.3059998,2.6851807,1.9338989,4.1414795
		c0.4237976,0.9938965-0.026886,2.1419678-1.0131836,2.5811768c-0.9707947,0.4353027-2.1419983,0.0076904-2.5927124-0.9747314
		c-0.0539856-0.1193848-0.747406-1.618042-1.9764099-4.2224121c-6.102478-11.8850098-13.4916687-16.7431641-18.8619995-18.7080078
		c-6.6033936-2.4193115-12.5671997-1.4909668-15.9382019,0.1965332c-0.8089905,3.62146,17.8912964,23.7548828,35.9483032,40.1706543
		c0.7897034,0.7165527,0.8669128,1.9300537,0.1772156,2.7391357c-0.7051086,0.8128662-1.9109192,0.9207764-2.735321,0.2619629
		c-19.4399719-15.5566406-34.1221924-16.5042725-40.7869873-12.574707c-2.2306824,1.3098145-3.4403992,3.1705322-3.155304,4.854126
		c0.3312988,1.9571533,2.6159058,3.5444336,6.1101074,4.2456055c20.0487061,4.010498,46.8048096,29.0212402,47.9335938,30.0845947
		c0.7936096,0.7473145,0.8320923,1.9956055,0.0847168,2.7893066c-0.747406,0.7935791-1.9956055,0.8282471-2.7891235,0.0847168
		c-0.2697754-0.2542725-27.0604858-25.3037109-45.9996948-29.0906982c-5.2432861-1.0478516-8.6065979-3.7678223-9.2306824-7.4586182
		c-0.5625-3.3363037,1.3714905-6.7495117,5.0467834-8.9108887c5.7210999-3.3632812,15.4103088-3.921875,27.9696045,1.9030762
		c-11.0144958-10.9797363-23.0921936-24.3981934-22.3447876-29.8071289
		c0.1732788-1.2597656,0.8861084-2.2575684,2.0072021-2.8200684c4.106781-2.0495605,11.2647705-3.2322998,19.0623779-0.3737793
		c2.7662048,1.0131836,5.9984131,2.6890869,9.3348083,5.4591064
		c-15.6452942-31.9492188-46.1884155-91.3826904-68.4405975-116.416626
		c-5.578598-6.2796631-11.0376892-12.1856689-16.1539001-17.7255859
		c-19.3206024-20.9155273-33.2823029-36.0291748-32.2613068-47.251709c0.3197021-3.5134277,2.1072998-6.5184326,5.3126068-8.9224854
		c2.2346039-1.6719971,5.2279968-1.9377441,8.9033051-0.7935791c19.0238953,5.944458,57.4107971,50.857666,80.6495056,90.4696045
		c-2.5774231-9.6853027-3.9528198-18.7850342-1.880127-23.4003906c0.7744141-1.7220459,2.0265198-2.9163818,3.6213989-3.4481201
		c1.7876282-0.5893555,4.70401-0.774292,8.4565125,1.7568359c8.1635132,5.5091553,35.5820923,36.0098877,45.5602112,197.1046143
		c0.0654907,1.09021-0.7589111,2.0263672-1.8452148,2.0919189
		C351.0681763,1307.9007568,351.0257874,1307.9007568,350.9873047,1307.9007568z"/><path fill="#5777fa" d="M447.503479,1597.9959717c0,46.848877-37.9790955,84.8184814-84.8184814,84.8184814
		c-46.8488159,0-84.818512-37.9696045-84.818512-84.8184814l35.5079041-293.9000244h94.6748962l20.9483948,156.0831299
		l0.0095215,0.0096436L447.503479,1597.9959717z"/><path fill="#435bdb" d="M398.1887817,1327.7645264h-71.0102844c-1.0903015,0-1.9725037-0.8823242-1.9725037-1.9725342
		c0-1.090332,0.8822021-1.9725342,1.9725037-1.9725342h71.0102844c1.0903015,0,1.9725037,0.8822021,1.9725037,1.9725342
		C400.1612854,1326.8822021,399.2790833,1327.7645264,398.1887817,1327.7645264z"/><path fill="#435bdb" d="M447.503479,1597.9959717c0,46.848877-37.9790955,84.8184814-84.8184814,84.8184814
		c-46.8488159,0-84.818512-37.9696045-84.818512-84.8184814c0,0,35.6419983,68.3336182,84.818512,68.3336182
		c31.6654053,0,50.5811768-28.34375,60.0357056-48.5222168c5.033783-10.7438965,7.5354919-22.4962158,7.4249878-34.3604736
		l-1.1480103-123.2678223l0.0095215,0.0096436L447.503479,1597.9959717z"/></g><g><g><path fill="#fff" d="M1430.9768066,503.0975952v648.2821655c0,10.9385986-3.1799316,21.1480713-8.6636963,29.7528076
			c-9.8623047,15.4750977-27.1767578,25.7598877-46.8491211,25.7598877H624.5471802
			c-30.6246948,0-55.5266113-24.9020996-55.5266113-55.5126953V503.0975952c0-8.7797852,2.052002-17.0849915,5.7090454-24.4830017
			c7.9981689-16.2337036,23.701416-28.0005798,42.3220825-30.5270996h0.0137939
			c2.4567871-0.3348999,4.9414062-0.5023804,7.4816895-0.5023804h750.9168091
			c15.3054199,0,29.1837158,6.2253723,39.2354736,16.2771912
			C1424.7513428,473.914093,1430.9768066,487.7922974,1430.9768066,503.0975952z"/><path fill="#e8eff9" d="M1375.4620361,447.5812073c30.6114502,0,55.515625,24.9042053,55.515625,55.5155029v648.2784424
			c0,30.6113281-24.9041748,55.5155029-55.515625,55.5155029H624.538208c-30.6116333,0-55.5159302-24.9041748-55.5159302-55.5155029
			V503.0967102c0-30.6112976,24.9042969-55.5155029,55.5159302-55.5155029H1375.4620361 M1375.4620361,440.6018982H624.538208
			c-34.5150146,0-62.4951172,27.9798889-62.4951172,62.494812v648.2784424c0,34.5148926,27.9801025,62.494751,62.4951172,62.494751
			h750.9238281c34.5150146,0,62.494873-27.9798584,62.494873-62.494751V503.0967102
			C1437.9569092,468.5817871,1409.9770508,440.6018982,1375.4620361,440.6018982L1375.4620361,440.6018982z"/><path fill="#e8eff9" d="M1433.0394287,531.1473999H567.0452881c-1.9274902,0-3.4896851-1.5620728-3.4896851-3.489502
			c0-1.9274902,1.5621948-3.4896851,3.4896851-3.4896851h865.9941406c1.9274902,0,3.489624,1.5621948,3.489624,3.4896851
			C1436.5290527,529.5853271,1434.9669189,531.1473999,1433.0394287,531.1473999z"/><circle cx="703.651" cy="488.287" r="8.652" fill="#4ed066"/><circle cx="665.968" cy="488.287" r="8.652" fill="#fb9b5b"/><circle cx="628.284" cy="488.287" r="8.652" fill="#ff6482"/></g><g><path fill="#5777fa" d="M1204.4742432,1036.831665H795.2023926c-21.3712158,0-38.6959839-17.324646-38.6959839-38.6958618
			V693.1677246c0-21.3711548,17.324646-38.6958008,38.6958618-38.6958008h409.2719727
			c21.3712158,0,38.6959229,17.324646,38.6959229,38.6958618v304.9680176
			C1243.170166,1019.507019,1225.845459,1036.831665,1204.4742432,1036.831665z"/><path fill="#2e234f" d="M1173.4239502,1012.4362793H826.2522583c-21.3711548,0-38.6958618-17.3247681-38.6958618-38.6959839
			v-256.177124c0-21.3711548,17.324707-38.6958618,38.6958008-38.6958618h347.171875
			c21.3710938,0,38.6958008,17.324707,38.6958008,38.6958618v256.177124
			C1212.119873,995.1115112,1194.795166,1012.4362793,1173.4239502,1012.4362793z"/><g><path fill="#fff" d="M1111.5258789,683.8457031c-2.7491455,0-4.9786377-2.229187-4.9786377-4.9788818v-24.3956299
				c0-2.7492676,2.2294922-4.9783936,4.9786377-4.9783936c2.7495117,0,4.9783936,2.229126,4.9783936,4.9783936v24.3956299
				C1116.5042725,681.6165161,1114.2753906,683.8457031,1111.5258789,683.8457031z"/><path fill="#fff" d="M1079.6149902,683.8457031c-2.7496338,0-4.9787598-2.229187-4.9787598-4.9788818v-24.3956299
				c0-2.7492676,2.229126-4.9783936,4.9787598-4.9783936c2.7492676,0,4.9783936,2.229126,4.9783936,4.9783936v24.3956299
				C1084.5933838,681.6165161,1082.3642578,683.8457031,1079.6149902,683.8457031z"/><path fill="#fff" d="M1047.7034912,683.8457031c-2.7492676,0-4.9783936-2.229187-4.9783936-4.9788818v-24.3956299
				c0-2.7492676,2.229126-4.9783936,4.9783936-4.9783936c2.7497559,0,4.9787598,2.229126,4.9787598,4.9783936v24.3956299
				C1052.682251,681.6165161,1050.4532471,683.8457031,1047.7034912,683.8457031z"/><path fill="#fff" d="M1015.7924805,683.8457031c-2.7492065,0-4.9783936-2.229187-4.9783936-4.9788818v-24.3956299
				c0-2.7492676,2.229187-4.9783936,4.9783936-4.9783936c2.7493286,0,4.9786987,2.229126,4.9786987,4.9783936v24.3956299
				C1020.7711792,681.6165161,1018.5418091,683.8457031,1015.7924805,683.8457031z"/><path fill="#fff" d="M983.8839722,683.8457031c-2.7492065,0-4.9785767-2.229187-4.9785767-4.9788818v-24.3956299
				c0-2.7492676,2.2293701-4.9783936,4.9785767-4.9783936c2.7495117,0,4.9788818,2.229126,4.9788818,4.9783936v24.3956299
				C988.862854,681.6165161,986.6334839,683.8457031,983.8839722,683.8457031z"/><path fill="#fff" d="M951.9730835,683.8457031c-2.7496948,0-4.9786377-2.229187-4.9786377-4.9788818v-24.3956299
				c0-2.7492676,2.2289429-4.9783936,4.9786377-4.9783936c2.7489624,0,4.9783936,2.229126,4.9783936,4.9783936v24.3956299
				C956.9514771,681.6165161,954.7220459,683.8457031,951.9730835,683.8457031z"/><path fill="#fff" d="M920.0617676,683.8457031c-2.7492065,0-4.9783936-2.229187-4.9783936-4.9788818v-24.3956299
				c0-2.7492676,2.229187-4.9783936,4.9783936-4.9783936c2.7495117,0,4.9788818,2.229126,4.9788818,4.9783936v24.3956299
				C925.0406494,681.6165161,922.8112793,683.8457031,920.0617676,683.8457031z"/><path fill="#fff" d="M888.1508789,683.8457031c-2.7492065,0-4.9785767-2.229187-4.9785767-4.9788818v-24.3956299
				c0-2.7492676,2.2293701-4.9783936,4.9785767-4.9783936c2.7495117,0,4.9783936,2.229126,4.9783936,4.9783936v24.3956299
				C893.1292725,681.6165161,890.9003906,683.8457031,888.1508789,683.8457031z"/></g><g><path fill="#fff" d="M1111.5258789,1041.8099365c-2.7491455,0-4.9786377-2.229248-4.9786377-4.9783936v-24.3947144
				c0-2.7493286,2.2294922-4.9784546,4.9786377-4.9784546c2.7495117,0,4.9783936,2.229126,4.9783936,4.9784546v24.3947144
				C1116.5042725,1039.5806885,1114.2753906,1041.8099365,1111.5258789,1041.8099365z"/><path fill="#fff" d="M1079.6149902,1041.8099365c-2.7496338,0-4.9787598-2.229248-4.9787598-4.9783936v-24.3947144
				c0-2.7493286,2.229126-4.9784546,4.9787598-4.9784546c2.7492676,0,4.9783936,2.229126,4.9783936,4.9784546v24.3947144
				C1084.5933838,1039.5806885,1082.3642578,1041.8099365,1079.6149902,1041.8099365z"/><path fill="#fff" d="M1047.7034912,1041.8099365c-2.7492676,0-4.9783936-2.229248-4.9783936-4.9783936v-24.3947144
				c0-2.7493286,2.229126-4.9784546,4.9783936-4.9784546c2.7497559,0,4.9787598,2.229126,4.9787598,4.9784546v24.3947144
				C1052.682251,1039.5806885,1050.4532471,1041.8099365,1047.7034912,1041.8099365z"/><path fill="#fff" d="M1015.7924805,1041.8099365c-2.7492065,0-4.9783936-2.229248-4.9783936-4.9783936v-24.3947144
				c0-2.7493286,2.229187-4.9784546,4.9783936-4.9784546c2.7493286,0,4.9786987,2.229126,4.9786987,4.9784546v24.3947144
				C1020.7711792,1039.5806885,1018.5418091,1041.8099365,1015.7924805,1041.8099365z"/><path fill="#fff" d="M983.8839722,1041.8099365c-2.7492065,0-4.9785767-2.229248-4.9785767-4.9783936v-24.3947144
				c0-2.7493286,2.2293701-4.9784546,4.9785767-4.9784546c2.7495117,0,4.9788818,2.229126,4.9788818,4.9784546v24.3947144
				C988.862854,1039.5806885,986.6334839,1041.8099365,983.8839722,1041.8099365z"/><path fill="#fff" d="M951.9730835,1041.8099365c-2.7496948,0-4.9786377-2.229248-4.9786377-4.9783936v-24.3947144
				c0-2.7493286,2.2289429-4.9784546,4.9786377-4.9784546c2.7489624,0,4.9783936,2.229126,4.9783936,4.9784546v24.3947144
				C956.9514771,1039.5806885,954.7220459,1041.8099365,951.9730835,1041.8099365z"/><path fill="#fff" d="M920.0617676,1041.8099365c-2.7492065,0-4.9783936-2.229248-4.9783936-4.9783936v-24.3947144
				c0-2.7493286,2.229187-4.9784546,4.9783936-4.9784546c2.7495117,0,4.9788818,2.229126,4.9788818,4.9784546v24.3947144
				C925.0406494,1039.5806885,922.8112793,1041.8099365,920.0617676,1041.8099365z"/><path fill="#fff" d="M888.1508789,1041.8099365c-2.7492065,0-4.9785767-2.229248-4.9785767-4.9783936v-24.3947144
				c0-2.7493286,2.2293701-4.9784546,4.9785767-4.9784546c2.7495117,0,4.9783936,2.229126,4.9783936,4.9784546v24.3947144
				C893.1292725,1039.5806885,890.9003906,1041.8099365,888.1508789,1041.8099365z"/></g><g><path fill="#fff" d="M780.9015503,735.1384888H756.506897c-2.7493286,0-4.9786377-2.2290039-4.9786377-4.9783936
				c0-2.7492065,2.2293091-4.9783936,4.9786377-4.9783936h24.3946533c2.7492065,0,4.9784546,2.229187,4.9784546,4.9783936
				C785.8800049,732.9094849,783.6507568,735.1384888,780.9015503,735.1384888z"/><path fill="#fff" d="M780.9015503,767.0498047H756.506897c-2.7493286,0-4.9786377-2.229126-4.9786377-4.9788208
				c0-2.7492676,2.2293091-4.9783936,4.9786377-4.9783936h24.3946533c2.7492065,0,4.9784546,2.229126,4.9784546,4.9783936
				C785.8800049,764.8206787,783.6507568,767.0498047,780.9015503,767.0498047z"/><path fill="#fff" d="M780.9015503,798.9606934H756.506897c-2.7493286,0-4.9786377-2.229187-4.9786377-4.9783936
				c0-2.7496948,2.2293091-4.9785767,4.9786377-4.9785767h24.3946533c2.7492065,0,4.9784546,2.2288818,4.9784546,4.9785767
				C785.8800049,796.7315063,783.6507568,798.9606934,780.9015503,798.9606934z"/><path fill="#fff" d="M780.9015503,830.8720093H756.506897c-2.7493286,0-4.9786377-2.2294312-4.9786377-4.9788208
				c0-2.7492676,2.2293091-4.9786987,4.9786377-4.9786987h24.3946533c2.7492065,0,4.9784546,2.2294312,4.9784546,4.9786987
				C785.8800049,828.6425781,783.6507568,830.8720093,780.9015503,830.8720093z"/><path fill="#fff" d="M780.9015503,862.7828979H756.506897c-2.7493286,0-4.9786377-2.2293701-4.9786377-4.9785767
				c0-2.7495117,2.2293091-4.9786987,4.9786377-4.9786987h24.3946533c2.7492065,0,4.9784546,2.229187,4.9784546,4.9786987
				C785.8800049,860.5535278,783.6507568,862.7828979,780.9015503,862.7828979z"/><path fill="#fff" d="M780.9015503,894.692627H756.506897c-2.7493286,0-4.9786377-2.229248-4.9786377-4.9784546
				c0-2.7496948,2.2293091-4.9788818,4.9786377-4.9788818h24.3946533c2.7492065,0,4.9784546,2.229187,4.9784546,4.9788818
				C785.8800049,892.4633789,783.6507568,894.692627,780.9015503,894.692627z"/><path fill="#fff" d="M780.9015503,926.6035156H756.506897c-2.7493286,0-4.9786377-2.2286987-4.9786377-4.9783936
				c0-2.7493286,2.2293091-4.9783936,4.9786377-4.9783936h24.3946533c2.7492065,0,4.9784546,2.2290649,4.9784546,4.9783936
				C785.8800049,924.3748169,783.6507568,926.6035156,780.9015503,926.6035156z"/><path fill="#fff" d="M780.9015503,958.5147705H756.506897c-2.7493286,0-4.9786377-2.229187-4.9786377-4.9788818
				c0-2.7492065,2.2293091-4.9783936,4.9786377-4.9783936h24.3946533c2.7492065,0,4.9784546,2.229187,4.9784546,4.9783936
				C785.8800049,956.2855835,783.6507568,958.5147705,780.9015503,958.5147705z"/></g><g><path fill="#fff" d="M1243.4932861,735.1384888h-24.3946533c-2.7493896,0-4.9787598-2.2290039-4.9787598-4.9783936
				c0-2.7492065,2.2293701-4.9783936,4.9787598-4.9783936h24.3946533c2.7492676,0,4.9783936,2.229187,4.9783936,4.9783936
				C1248.4716797,732.9094849,1246.2425537,735.1384888,1243.4932861,735.1384888z"/><path fill="#fff" d="M1243.4932861,767.0498047h-24.3946533c-2.7493896,0-4.9787598-2.229126-4.9787598-4.9788208
				c0-2.7492676,2.2293701-4.9783936,4.9787598-4.9783936h24.3946533c2.7492676,0,4.9783936,2.229126,4.9783936,4.9783936
				C1248.4716797,764.8206787,1246.2425537,767.0498047,1243.4932861,767.0498047z"/><path fill="#fff" d="M1243.4932861,798.9606934h-24.3946533c-2.7493896,0-4.9787598-2.229187-4.9787598-4.9783936
				c0-2.7496948,2.2293701-4.9785767,4.9787598-4.9785767h24.3946533c2.7492676,0,4.9783936,2.2288818,4.9783936,4.9785767
				C1248.4716797,796.7315063,1246.2425537,798.9606934,1243.4932861,798.9606934z"/><path fill="#fff" d="M1243.4932861,830.8720093h-24.3946533c-2.7493896,0-4.9787598-2.2294312-4.9787598-4.9788208
				c0-2.7492676,2.2293701-4.9786987,4.9787598-4.9786987h24.3946533c2.7492676,0,4.9783936,2.2294312,4.9783936,4.9786987
				C1248.4716797,828.6425781,1246.2425537,830.8720093,1243.4932861,830.8720093z"/><path fill="#fff" d="M1243.4932861,862.7828979h-24.3946533c-2.7493896,0-4.9787598-2.2293701-4.9787598-4.9785767
				c0-2.7495117,2.2293701-4.9786987,4.9787598-4.9786987h24.3946533c2.7492676,0,4.9783936,2.229187,4.9783936,4.9786987
				C1248.4716797,860.5535278,1246.2425537,862.7828979,1243.4932861,862.7828979z"/><path fill="#fff" d="M1243.4932861,894.692627h-24.3946533c-2.7493896,0-4.9787598-2.229248-4.9787598-4.9784546
				c0-2.7496948,2.2293701-4.9788818,4.9787598-4.9788818h24.3946533c2.7492676,0,4.9783936,2.229187,4.9783936,4.9788818
				C1248.4716797,892.4633789,1246.2425537,894.692627,1243.4932861,894.692627z"/><path fill="#fff" d="M1243.4932861,926.6035156h-24.3946533c-2.7493896,0-4.9787598-2.2286987-4.9787598-4.9783936
				c0-2.7493286,2.2293701-4.9783936,4.9787598-4.9783936h24.3946533c2.7492676,0,4.9783936,2.2290649,4.9783936,4.9783936
				C1248.4716797,924.3748169,1246.2425537,926.6035156,1243.4932861,926.6035156z"/><path fill="#fff" d="M1243.4932861,958.5147705h-24.3946533c-2.7493896,0-4.9787598-2.229187-4.9787598-4.9788818
				c0-2.7492065,2.2293701-4.9783936,4.9787598-4.9783936h24.3946533c2.7492676,0,4.9783936,2.229187,4.9783936,4.9783936
				C1248.4716797,956.2855835,1246.2425537,958.5147705,1243.4932861,958.5147705z"/></g><g><path fill="#fff" d="M935.2667847,782.5006104l47.4074707,126.3023682h-28.3029785l-10.0831299-29.1868896h-44.2230835
				l-10.0830688,29.1868896h-27.241333l47.4067993-126.3023682H935.2667847z M921.9998779,812.5728149l-15.2131958,45.28479
				h30.6027832L921.9998779,812.5728149z"/><path fill="#fff" d="M1042.4693604,782.5006104c9.6704102,0,17.6594238,1.0916138,23.9683838,3.2722778
				c6.3103027,2.1818848,11.321167,5.0720825,15.0367432,8.6679077c3.7143555,3.5971069,6.30896,7.7839966,7.7827148,12.5593262
				c1.4737549,4.7765503,2.2111816,9.7595825,2.2111816,14.9475708c0,5.5435181-0.7374268,10.8499146-2.2111816,15.9208374
				c-1.4737549,5.0707397-4.0683594,9.522583-7.7827148,13.3553467c-3.7155762,3.8327026-8.6679688,6.8694458-14.8597412,9.1099243
				c-6.1904297,2.2404785-14.0037842,3.3615112-23.4384766,3.3615112h-19.8120728v45.107666h-26.0031738V782.5006104H1042.4693604z
				 M1053.701416,840.3447266c3.0073242-0.942627,5.3956299-2.2406006,7.164917-3.8914185s2.9766846-3.6849976,3.6263428-6.1026001
				c0.6483154-2.4176025,0.9732666-5.0415039,0.9732666-7.8718262c0-2.9487915-0.354126-5.5420532-1.0625-7.7839966
				c-0.7067871-2.2404785-1.9449463-4.1270142-3.7142334-5.6605835c-1.769165-1.5322876-4.1574707-2.711792-7.164917-3.5372314
				c-3.0059814-0.8253784-6.8094482-1.2380981-11.4090576-1.2380981h-18.7510376v37.5008545h18.9281616
				C1046.8918457,841.7598267,1050.6939697,841.2885132,1053.701416,840.3447266z"/><path fill="#fff" d="M1136.9355469,782.5006104v126.3023682h-26.3579102V782.5006104H1136.9355469z"/></g></g><path fill="#5777fa" d="M526.4490967,544.3873291c0,31.1952515-25.2886963,56.4931641-56.4931946,56.4931641h-69.2064209v-45.5803223
		h15.542511l-38.2224121-44.6985779l-38.2315674,44.6985779h15.5424805v45.5803223h-69.2063904
		c-31.2045135,0-56.4932098-25.2979126-56.4932098-56.4931641c0-30.0286255,23.423996-54.5733337,52.9933014-56.3737183
		c12.4468994-14.091217,30.3685913-23.2219238,50.4396973-24.0393982
		c10.7658081-25.6379089,36.1097107-43.6422119,65.6607056-43.6422119c38.1029968,0,69.2063904,29.9276123,71.0894775,67.5621948
		h0.0918274C501.1604004,487.8941956,526.4490967,513.1829224,526.4490967,544.3873291z"/><g><rect width="261.6" height="352.862" x="546.055" y="1329.953" fill="#2e234f"/><g><path fill="#f93d69" d="M817.6784668,1369.5567627H536.0321655c-4.1002808,0-7.4241943-3.3238525-7.4241943-7.4241943v-64.3601074
				c0-4.1002197,3.3237915-7.4241943,7.4241333-7.4241943h281.6463013c4.1001587,0,7.4241943,3.3239746,7.4241943,7.4241943
				v64.3602295C825.1026001,1366.2330322,821.7786865,1369.5567627,817.6784668,1369.5567627z"/><path fill="#ff6483" d="M824.992981,1364.0925293H528.7174683c-4.8717041,0-8.8209839-3.9493408-8.8209839-8.8210449v-50.6379395
				c0-4.8717041,3.9492798-8.8209229,8.8209839-8.8209229h296.2753906c4.8717041,0,8.8210449,3.9492188,8.8210449,8.8209229
				v50.6380615C833.8139038,1360.1433105,829.8646851,1364.0925293,824.992981,1364.0925293z"/><g><path fill="#fff" d="M564.395813,1314.5567627h-14.0516357c-2.5465698,0-4.6115112-2.0649414-4.6115112-4.6116943
					c0-2.5466309,2.0649414-4.6114502,4.6115112-4.6114502h14.0516357c2.5466919,0,4.6115723,2.0648193,4.6115723,4.6114502
					C569.0073853,1312.4918213,566.9425049,1314.5567627,564.395813,1314.5567627z"/><path fill="#fff" d="M599.7640991,1314.5567627h-14.0519409c-2.5466919,0-4.6115723-2.0649414-4.6115723-4.6116943
					c0-2.5466309,2.0648804-4.6114502,4.6115723-4.6114502h14.0519409c2.546814,0,4.6116943,2.0648193,4.6116943,4.6114502
					C604.3757935,1312.4918213,602.3109131,1314.5567627,599.7640991,1314.5567627z"/><path fill="#fff" d="M635.1322021,1314.5567627h-14.052002c-2.5466919,0-4.6116333-2.0649414-4.6116333-4.6116943
					c0-2.5466309,2.0649414-4.6114502,4.6116333-4.6114502h14.052002c2.5466919,0,4.6115112,2.0648193,4.6115112,4.6114502
					C639.7437134,1312.4918213,637.678894,1314.5567627,635.1322021,1314.5567627z"/><path fill="#fff" d="M670.5001831,1314.5567627h-14.0516968c-2.5466309,0-4.6115112-2.0649414-4.6115112-4.6116943
					c0-2.5466309,2.0648804-4.6114502,4.6115112-4.6114502h14.0516968c2.5465698,0,4.6115112,2.0648193,4.6115112,4.6114502
					C675.1116943,1312.4918213,673.0467529,1314.5567627,670.5001831,1314.5567627z"/><path fill="#fff" d="M564.395813,1334.5640869h-14.0516357c-2.5465698,0-4.6115112-2.0649414-4.6115112-4.6115723
					s2.0649414-4.6115723,4.6115112-4.6115723h14.0516357c2.5466919,0,4.6115723,2.0649414,4.6115723,4.6115723
					S566.9425049,1334.5640869,564.395813,1334.5640869z"/><path fill="#4ed066" d="M599.7640991,1334.5640869h-14.0519409c-2.5466919,0-4.6115723-2.0649414-4.6115723-4.6115723
					s2.0648804-4.6115723,4.6115723-4.6115723h14.0519409c2.546814,0,4.6116943,2.0649414,4.6116943,4.6115723
					S602.3109131,1334.5640869,599.7640991,1334.5640869z"/><path fill="#fff" d="M635.1322021,1334.5640869h-14.052002c-2.5466919,0-4.6116333-2.0649414-4.6116333-4.6115723
					s2.0649414-4.6115723,4.6116333-4.6115723h14.052002c2.5466919,0,4.6115112,2.0649414,4.6115112,4.6115723
					S637.678894,1334.5640869,635.1322021,1334.5640869z"/><path fill="#fff" d="M670.5001831,1334.5640869h-14.0516968c-2.5466309,0-4.6115112-2.0649414-4.6115112-4.6115723
					s2.0648804-4.6115723,4.6115112-4.6115723h14.0516968c2.5465698,0,4.6115112,2.0649414,4.6115112,4.6115723
					S673.0467529,1334.5640869,670.5001831,1334.5640869z"/><path fill="#fff" d="M564.395813,1354.5715332h-14.0516357c-2.5465698,0-4.6115112-2.0649414-4.6115112-4.6115723
					c0-2.5467529,2.0649414-4.6116943,4.6115112-4.6116943h14.0516357c2.5466919,0,4.6115723,2.0649414,4.6115723,4.6116943
					C569.0073853,1352.5065918,566.9425049,1354.5715332,564.395813,1354.5715332z"/><path fill="#fff" d="M599.7640991,1354.5715332h-14.0519409c-2.5466919,0-4.6115723-2.0649414-4.6115723-4.6115723
					c0-2.5467529,2.0648804-4.6116943,4.6115723-4.6116943h14.0519409c2.546814,0,4.6116943,2.0649414,4.6116943,4.6116943
					C604.3757935,1352.5065918,602.3109131,1354.5715332,599.7640991,1354.5715332z"/><path fill="#fff" d="M635.1322021,1354.5715332h-14.052002c-2.5466919,0-4.6116333-2.0649414-4.6116333-4.6115723
					c0-2.5467529,2.0649414-4.6116943,4.6116333-4.6116943h14.052002c2.5466919,0,4.6115112,2.0649414,4.6115112,4.6116943
					C639.7437134,1352.5065918,637.678894,1354.5715332,635.1322021,1354.5715332z"/><path fill="#4ed066" d="M670.5001831,1354.5715332h-14.0516968c-2.5466309,0-4.6115112-2.0649414-4.6115112-4.6115723
					c0-2.5467529,2.0648804-4.6116943,4.6115112-4.6116943h14.0516968c2.5465698,0,4.6115112,2.0649414,4.6115112,4.6116943
					C675.1116943,1352.5065918,673.0467529,1354.5715332,670.5001831,1354.5715332z"/></g><path fill="#f93d69" d="M734.5462036,1316.815918c-7.2437134,0-13.1369019,5.8928223-13.1369019,13.1365967
				c0,7.2438965,5.8931885,13.1367188,13.1369019,13.1367188c7.2434692,0,13.1366577-5.8928223,13.1366577-13.1367188
				C747.6828613,1322.7087402,741.7896729,1316.815918,734.5462036,1316.815918z"/><path fill="#f93d69" d="M770.9394531,1316.815918c-7.2439575,0-13.137085,5.8928223-13.137085,13.1365967
				c0,7.2438965,5.8931274,13.1367188,13.137085,13.1367188c7.2433472,0,13.1365356-5.8928223,13.1365356-13.1367188
				C784.0759888,1322.7087402,778.1828003,1316.815918,770.9394531,1316.815918z"/><path fill="#f99bb2" d="M807.3324585,1316.815918c-7.2437744,0-13.1369629,5.8928223-13.1369629,13.1365967
				c0,7.2438965,5.8931885,13.1367188,13.1369629,13.1367188c7.2434082,0,13.1367188-5.8928223,13.1367188-13.1367188
				C820.4691772,1322.7087402,814.5758667,1316.815918,807.3324585,1316.815918z"/></g><g><path fill="#f93d69" d="M817.6784668,1467.9661865H536.0321655c-4.1002808,0-7.4241943-3.3239746-7.4241943-7.4241943v-64.3603516
				c0-4.1000977,3.3237915-7.4240723,7.4241333-7.4240723h281.6463013c4.1001587,0,7.4241943,3.3239746,7.4241943,7.4241943
				v64.3603516C825.1026001,1464.642334,821.7786865,1467.9661865,817.6784668,1467.9661865z"/><path fill="#ff6483" d="M824.9928589,1462.5019531H528.7174683c-4.8717041,0-8.8209839-3.9492188-8.8209839-8.8209229v-50.6381836
				c0-4.8717041,3.9492798-8.8210449,8.8209839-8.8210449h296.2753906c4.8717041,0,8.8210449,3.9493408,8.8210449,8.8210449
				v50.6381836C833.8139038,1458.5527344,829.864563,1462.5019531,824.9928589,1462.5019531z"/><g><path fill="#4ed066" d="M564.395813,1412.9659424h-14.0516357c-2.5465698,0-4.6115112-2.0646973-4.6115112-4.6114502
					s2.0649414-4.6115723,4.6115112-4.6115723h14.0516357c2.5466919,0,4.6115723,2.0648193,4.6115723,4.6115723
					S566.9425049,1412.9659424,564.395813,1412.9659424z"/><path fill="#fff" d="M599.7640991,1412.9659424h-14.0519409c-2.5466919,0-4.6115723-2.0646973-4.6115723-4.6114502
					s2.0648804-4.6115723,4.6115723-4.6115723h14.0519409c2.546814,0,4.6116943,2.0648193,4.6116943,4.6115723
					S602.3109131,1412.9659424,599.7640991,1412.9659424z"/><path fill="#fff" d="M635.1322021,1412.9659424h-14.052002c-2.5466919,0-4.6116333-2.0646973-4.6116333-4.6114502
					s2.0649414-4.6115723,4.6116333-4.6115723h14.052002c2.5466919,0,4.6115112,2.0648193,4.6115112,4.6115723
					S637.678894,1412.9659424,635.1322021,1412.9659424z"/><path fill="#fff" d="M670.5001831,1412.9659424h-14.0516968c-2.5466309,0-4.6115112-2.0646973-4.6115112-4.6114502
					s2.0648804-4.6115723,4.6115112-4.6115723h14.0516968c2.5465698,0,4.6115112,2.0648193,4.6115112,4.6115723
					S673.0467529,1412.9659424,670.5001831,1412.9659424z"/><path fill="#fff" d="M564.395813,1432.9735107h-14.0516357c-2.5465698,0-4.6115112-2.0649414-4.6115112-4.6116943
					c0-2.5466309,2.0649414-4.6115723,4.6115112-4.6115723h14.0516357c2.5466919,0,4.6115723,2.0649414,4.6115723,4.6115723
					C569.0073853,1430.9085693,566.9425049,1432.9735107,564.395813,1432.9735107z"/><path fill="#fff" d="M599.7640991,1432.9735107h-14.0519409c-2.5466919,0-4.6115723-2.0649414-4.6115723-4.6116943
					c0-2.5466309,2.0648804-4.6115723,4.6115723-4.6115723h14.0519409c2.546814,0,4.6116943,2.0649414,4.6116943,4.6115723
					C604.3757935,1430.9085693,602.3109131,1432.9735107,599.7640991,1432.9735107z"/><path fill="#fff" d="M635.1322021,1432.9735107h-14.052002c-2.5466919,0-4.6116333-2.0649414-4.6116333-4.6116943
					c0-2.5466309,2.0649414-4.6115723,4.6116333-4.6115723h14.052002c2.5466919,0,4.6115112,2.0649414,4.6115112,4.6115723
					C639.7437134,1430.9085693,637.678894,1432.9735107,635.1322021,1432.9735107z"/><path fill="#fff" d="M670.5001831,1432.9735107h-14.0516968c-2.5466309,0-4.6115112-2.0649414-4.6115112-4.6116943
					c0-2.5466309,2.0648804-4.6115723,4.6115112-4.6115723h14.0516968c2.5465698,0,4.6115112,2.0649414,4.6115112,4.6115723
					C675.1116943,1430.9085693,673.0467529,1432.9735107,670.5001831,1432.9735107z"/><path fill="#fff" d="M564.395813,1452.980835h-14.0516357c-2.5465698,0-4.6115112-2.0649414-4.6115112-4.6115723
					s2.0649414-4.6115723,4.6115112-4.6115723h14.0516357c2.5466919,0,4.6115723,2.0649414,4.6115723,4.6115723
					S566.9425049,1452.980835,564.395813,1452.980835z"/><path fill="#fff" d="M599.7640991,1452.980835h-14.0519409c-2.5466919,0-4.6115723-2.0649414-4.6115723-4.6115723
					s2.0648804-4.6115723,4.6115723-4.6115723h14.0519409c2.546814,0,4.6116943,2.0649414,4.6116943,4.6115723
					S602.3109131,1452.980835,599.7640991,1452.980835z"/><path fill="#4ed066" d="M635.1322021,1452.980835h-14.052002c-2.5466919,0-4.6116333-2.0649414-4.6116333-4.6115723
					s2.0649414-4.6115723,4.6116333-4.6115723h14.052002c2.5466919,0,4.6115112,2.0649414,4.6115112,4.6115723
					S637.678894,1452.980835,635.1322021,1452.980835z"/><path fill="#fff" d="M670.5001831,1452.980835h-14.0516968c-2.5466309,0-4.6115112-2.0649414-4.6115112-4.6115723
					s2.0648804-4.6115723,4.6115112-4.6115723h14.0516968c2.5465698,0,4.6115112,2.0649414,4.6115112,4.6115723
					S673.0467529,1452.980835,670.5001831,1452.980835z"/></g><path fill="#f99bb2" d="M734.5462036,1415.2253418c-7.2437134,0-13.1369019,5.8927002-13.1369019,13.1364746
				c0,7.2440186,5.8931885,13.1367188,13.1369019,13.1367188c7.2434692,0,13.1366577-5.8927002,13.1366577-13.1367188
				C747.6828613,1421.118042,741.7896729,1415.2253418,734.5462036,1415.2253418z"/><path fill="#f93d69" d="M770.9394531,1415.2253418c-7.2439575,0-13.137085,5.8927002-13.137085,13.1364746
				c0,7.2440186,5.8931274,13.1367188,13.137085,13.1367188c7.2433472,0,13.1365356-5.8927002,13.1365356-13.1367188
				C784.0759888,1421.118042,778.1828003,1415.2253418,770.9394531,1415.2253418z"/><path fill="#f99bb2" d="M807.3324585,1415.2253418c-7.2437744,0-13.1369629,5.8927002-13.1369629,13.1364746
				c0,7.2440186,5.8931885,13.1367188,13.1369629,13.1367188c7.2434082,0,13.1367188-5.8927002,13.1367188-13.1367188
				C820.4691772,1421.118042,814.5758667,1415.2253418,807.3324585,1415.2253418z"/></g><g><path fill="#f93d69" d="M817.6784668,1566.3753662H536.0321655c-4.1002808,0-7.4241943-3.3238525-7.4241943-7.4241943v-64.3601074
				c0-4.1002197,3.3237915-7.4240723,7.4241333-7.4240723h281.6463013c4.1001587,0,7.4241943,3.3238525,7.4241943,7.4241943
				v64.3601074C825.1026001,1563.0515137,821.7786865,1566.3753662,817.6784668,1566.3753662z"/><path fill="#ff6483" d="M824.9928589,1560.9112549H528.7174683c-4.8717041,0-8.8209839-3.9492188-8.8209839-8.8209229v-50.6381836
				c0-4.8717041,3.9492798-8.8209229,8.8209839-8.8209229h296.2753906c4.8717041,0,8.8210449,3.9492188,8.8210449,8.8209229
				v50.6381836C833.8139038,1556.9620361,829.864563,1560.9112549,824.9928589,1560.9112549z"/><g><path fill="#fff" d="M564.395813,1511.3752441h-14.0516357c-2.5465698,0-4.6115112-2.0646973-4.6115112-4.6114502
					s2.0649414-4.6114502,4.6115112-4.6114502h14.0516357c2.5466919,0,4.6115723,2.0646973,4.6115723,4.6114502
					S566.9425049,1511.3752441,564.395813,1511.3752441z"/><path fill="#fff" d="M599.7640991,1511.3752441h-14.0519409c-2.5466919,0-4.6115723-2.0646973-4.6115723-4.6114502
					s2.0648804-4.6114502,4.6115723-4.6114502h14.0519409c2.546814,0,4.6116943,2.0646973,4.6116943,4.6114502
					S602.3109131,1511.3752441,599.7640991,1511.3752441z"/><path fill="#fff" d="M635.1322021,1511.3752441h-14.052002c-2.5466919,0-4.6116333-2.0646973-4.6116333-4.6114502
					s2.0649414-4.6114502,4.6116333-4.6114502h14.052002c2.5466919,0,4.6115112,2.0646973,4.6115112,4.6114502
					S637.678894,1511.3752441,635.1322021,1511.3752441z"/><path fill="#4ed066" d="M670.5001831,1511.3752441h-14.0516968c-2.5466309,0-4.6115112-2.0646973-4.6115112-4.6114502
					s2.0648804-4.6114502,4.6115112-4.6114502h14.0516968c2.5465698,0,4.6115112,2.0646973,4.6115112,4.6114502
					S673.0467529,1511.3752441,670.5001831,1511.3752441z"/><path fill="#4ed066" d="M564.395813,1531.3828125h-14.0516357c-2.5465698,0-4.6115112-2.0649414-4.6115112-4.6115723
					c0-2.5467529,2.0649414-4.6115723,4.6115112-4.6115723h14.0516357c2.5466919,0,4.6115723,2.0648193,4.6115723,4.6115723
					C569.0073853,1529.3178711,566.9425049,1531.3828125,564.395813,1531.3828125z"/><path fill="#fff" d="M599.7640991,1531.3828125h-14.0519409c-2.5466919,0-4.6115723-2.0649414-4.6115723-4.6115723
					c0-2.5467529,2.0648804-4.6115723,4.6115723-4.6115723h14.0519409c2.546814,0,4.6116943,2.0648193,4.6116943,4.6115723
					C604.3757935,1529.3178711,602.3109131,1531.3828125,599.7640991,1531.3828125z"/><path fill="#fff" d="M635.1322021,1531.3828125h-14.052002c-2.5466919,0-4.6116333-2.0649414-4.6116333-4.6115723
					c0-2.5467529,2.0649414-4.6115723,4.6116333-4.6115723h14.052002c2.5466919,0,4.6115112,2.0648193,4.6115112,4.6115723
					C639.7437134,1529.3178711,637.678894,1531.3828125,635.1322021,1531.3828125z"/><path fill="#fff" d="M670.5001831,1531.3828125h-14.0516968c-2.5466309,0-4.6115112-2.0649414-4.6115112-4.6115723
					c0-2.5467529,2.0648804-4.6115723,4.6115112-4.6115723h14.0516968c2.5465698,0,4.6115112,2.0648193,4.6115112,4.6115723
					C675.1116943,1529.3178711,673.0467529,1531.3828125,670.5001831,1531.3828125z"/><path fill="#fff" d="M564.395813,1551.3902588h-14.0516357c-2.5465698,0-4.6115112-2.0649414-4.6115112-4.6115723
					c0-2.5467529,2.0649414-4.6116943,4.6115112-4.6116943h14.0516357c2.5466919,0,4.6115723,2.0649414,4.6115723,4.6116943
					C569.0073853,1549.3253174,566.9425049,1551.3902588,564.395813,1551.3902588z"/><path fill="#fff" d="M599.7640991,1551.3902588h-14.0519409c-2.5466919,0-4.6115723-2.0649414-4.6115723-4.6115723
					c0-2.5467529,2.0648804-4.6116943,4.6115723-4.6116943h14.0519409c2.546814,0,4.6116943,2.0649414,4.6116943,4.6116943
					C604.3757935,1549.3253174,602.3109131,1551.3902588,599.7640991,1551.3902588z"/><path fill="#fff" d="M635.1322021,1551.3902588h-14.052002c-2.5466919,0-4.6116333-2.0649414-4.6116333-4.6115723
					c0-2.5467529,2.0649414-4.6116943,4.6116333-4.6116943h14.052002c2.5466919,0,4.6115112,2.0649414,4.6115112,4.6116943
					C639.7437134,1549.3253174,637.678894,1551.3902588,635.1322021,1551.3902588z"/><path fill="#fff" d="M670.5001831,1551.3902588h-14.0516968c-2.5466309,0-4.6115112-2.0649414-4.6115112-4.6115723
					c0-2.5467529,2.0648804-4.6116943,4.6115112-4.6116943h14.0516968c2.5465698,0,4.6115112,2.0649414,4.6115112,4.6116943
					C675.1116943,1549.3253174,673.0467529,1551.3902588,670.5001831,1551.3902588z"/></g><path fill="#f99bb2" d="M734.5462036,1513.6346436c-7.2437134,0-13.1369019,5.8928223-13.1369019,13.1365967
				c0,7.2438965,5.8931885,13.1367188,13.1369019,13.1367188c7.2434692,0,13.1366577-5.8928223,13.1366577-13.1367188
				C747.6828613,1519.5274658,741.7896729,1513.6346436,734.5462036,1513.6346436z"/><path fill="#f93d69" d="M770.9394531,1513.6346436c-7.2439575,0-13.137085,5.8928223-13.137085,13.1365967
				c0,7.2438965,5.8931274,13.1367188,13.137085,13.1367188c7.2433472,0,13.1365356-5.8928223,13.1365356-13.1367188
				C784.0759888,1519.5274658,778.1828003,1513.6346436,770.9394531,1513.6346436z"/><path fill="#f93d69" d="M807.3324585,1513.6346436c-7.2437744,0-13.1369629,5.8928223-13.1369629,13.1365967
				c0,7.2438965,5.8931885,13.1367188,13.1369629,13.1367188c7.2434082,0,13.1367188-5.8928223,13.1367188-13.1367188
				C820.4691772,1519.5274658,814.5758667,1513.6346436,807.3324585,1513.6346436z"/></g><g><path fill="#f93d69" d="M817.6784058,1664.7849121H536.0321655c-4.1002808,0-7.4241943-3.3239746-7.4241943-7.4241943v-64.3603516
				c0-4.1002197,3.3237915-7.4240723,7.4241333-7.4240723h281.6463013c4.1001587,0,7.4241943,3.3238525,7.4241943,7.4241943
				v64.3602295C825.1026001,1661.4609375,821.7785645,1664.7849121,817.6784058,1664.7849121z"/><path fill="#ff6483" d="M824.9928589,1659.3205566H528.7174683c-4.8717041,0-8.8209839-3.9492188-8.8209839-8.8209229v-50.6381836
				c0-4.8717041,3.9492798-8.8209229,8.8209839-8.8209229h296.2753906c4.8717041,0,8.8210449,3.9492188,8.8210449,8.8209229
				v50.6381836C833.8139038,1655.3713379,829.864563,1659.3205566,824.9928589,1659.3205566z"/><g><path fill="#fff" d="M564.395813,1609.784668h-14.0516357c-2.5465698,0-4.6115112-2.0648193-4.6115112-4.6116943
					c0-2.5466309,2.0649414-4.6113281,4.6115112-4.6113281h14.0516357c2.5466919,0,4.6115723,2.0646973,4.6115723,4.6113281
					C569.0073853,1607.7198486,566.9425049,1609.784668,564.395813,1609.784668z"/><path fill="#fff" d="M599.7640991,1609.784668h-14.0519409c-2.5466919,0-4.6115723-2.0648193-4.6115723-4.6116943
					c0-2.5466309,2.0648804-4.6113281,4.6115723-4.6113281h14.0519409c2.546814,0,4.6116943,2.0646973,4.6116943,4.6113281
					C604.3757935,1607.7198486,602.3109131,1609.784668,599.7640991,1609.784668z"/><path fill="#4ed066" d="M635.1322021,1609.784668h-14.052002c-2.5466919,0-4.6116333-2.0648193-4.6116333-4.6116943
					c0-2.5466309,2.0649414-4.6113281,4.6116333-4.6113281h14.052002c2.5466919,0,4.6115112,2.0646973,4.6115112,4.6113281
					C639.7437134,1607.7198486,637.678894,1609.784668,635.1322021,1609.784668z"/><path fill="#fff" d="M670.5001831,1609.784668h-14.0516968c-2.5466309,0-4.6115112-2.0648193-4.6115112-4.6116943
					c0-2.5466309,2.0648804-4.6113281,4.6115112-4.6113281h14.0516968c2.5465698,0,4.6115112,2.0646973,4.6115112,4.6113281
					C675.1116943,1607.7198486,673.0467529,1609.784668,670.5001831,1609.784668z"/><path fill="#fff" d="M564.395813,1629.7921143h-14.0516357c-2.5465698,0-4.6115112-2.0648193-4.6115112-4.6115723
					s2.0649414-4.6115723,4.6115112-4.6115723h14.0516357c2.5466919,0,4.6115723,2.0648193,4.6115723,4.6115723
					S566.9425049,1629.7921143,564.395813,1629.7921143z"/><path fill="#fff" d="M599.7640991,1629.7921143h-14.0519409c-2.5466919,0-4.6115723-2.0648193-4.6115723-4.6115723
					s2.0648804-4.6115723,4.6115723-4.6115723h14.0519409c2.546814,0,4.6116943,2.0648193,4.6116943,4.6115723
					S602.3109131,1629.7921143,599.7640991,1629.7921143z"/><path fill="#fff" d="M635.1322021,1629.7921143h-14.052002c-2.5466919,0-4.6116333-2.0648193-4.6116333-4.6115723
					s2.0649414-4.6115723,4.6116333-4.6115723h14.052002c2.5466919,0,4.6115112,2.0648193,4.6115112,4.6115723
					S637.678894,1629.7921143,635.1322021,1629.7921143z"/><path fill="#fff" d="M670.5001831,1629.7921143h-14.0516968c-2.5466309,0-4.6115112-2.0648193-4.6115112-4.6115723
					s2.0648804-4.6115723,4.6115112-4.6115723h14.0516968c2.5465698,0,4.6115112,2.0648193,4.6115112,4.6115723
					S673.0467529,1629.7921143,670.5001831,1629.7921143z"/><path fill="#4ed066" d="M564.395813,1649.7994385h-14.0516357c-2.5465698,0-4.6115112-2.0648193-4.6115112-4.6114502
					s2.0649414-4.6114502,4.6115112-4.6114502h14.0516357c2.5466919,0,4.6115723,2.0648193,4.6115723,4.6114502
					S566.9425049,1649.7994385,564.395813,1649.7994385z"/><path fill="#fff" d="M599.7640991,1649.7994385h-14.0519409c-2.5466919,0-4.6115723-2.0648193-4.6115723-4.6114502
					s2.0648804-4.6114502,4.6115723-4.6114502h14.0519409c2.546814,0,4.6116943,2.0648193,4.6116943,4.6114502
					S602.3109131,1649.7994385,599.7640991,1649.7994385z"/><path fill="#fff" d="M635.1322021,1649.7994385h-14.052002c-2.5466919,0-4.6116333-2.0648193-4.6116333-4.6114502
					s2.0649414-4.6114502,4.6116333-4.6114502h14.052002c2.5466919,0,4.6115112,2.0648193,4.6115112,4.6114502
					S637.678894,1649.7994385,635.1322021,1649.7994385z"/><path fill="#fff" d="M670.5001831,1649.7994385h-14.0516968c-2.5466309,0-4.6115112-2.0648193-4.6115112-4.6114502
					s2.0648804-4.6114502,4.6115112-4.6114502h14.0516968c2.5465698,0,4.6115112,2.0648193,4.6115112,4.6114502
					S673.0467529,1649.7994385,670.5001831,1649.7994385z"/></g><path fill="#f93d69" d="M734.5462036,1612.0439453c-7.2437134,0-13.1369019,5.8927002-13.1369019,13.1365967
				c0,7.2437744,5.8931885,13.1365967,13.1369019,13.1365967c7.2434692,0,13.1366577-5.8928223,13.1366577-13.1365967
				C747.6828613,1617.9366455,741.7896729,1612.0439453,734.5462036,1612.0439453z"/><path fill="#f99bb2" d="M770.9394531,1612.0439453c-7.2439575,0-13.137085,5.8927002-13.137085,13.1365967
				c0,7.2437744,5.8931274,13.1365967,13.137085,13.1365967c7.2433472,0,13.1365356-5.8928223,13.1365356-13.1365967
				C784.0759888,1617.9366455,778.1828003,1612.0439453,770.9394531,1612.0439453z"/><path fill="#f93d69" d="M807.3324585,1612.0439453c-7.2437744,0-13.1369629,5.8927002-13.1369629,13.1365967
				c0,7.2437744,5.8931885,13.1365967,13.1369629,13.1365967c7.2434082,0,13.1367188-5.8928223,13.1367188-13.1365967
				C820.4691772,1617.9366455,814.5758667,1612.0439453,807.3324585,1612.0439453z"/></g></g><g><path fill="#514592" d="M1670.744751,752.4703979v143.8745117c0,6.9611206-2.0235596,13.4581909-5.5134277,18.9342041
			c-6.276123,9.8479614-17.2946777,16.3930054-29.8138428,16.3930054h-235.135376
			c-19.4890137,0-35.3360596-15.8471069-35.3360596-35.3272095V752.4703979c0-5.5872803,1.3057861-10.8726196,3.6330566-15.5806274
			c5.0898438-10.3307495,15.0831299-17.8189697,26.9328613-19.4267578h0.0089111
			c1.5634766-0.2131958,3.1445312-0.3198242,4.7612305-0.3198242h235.135376c9.7401123,0,18.5718994,3.961731,24.96875,10.3585205
			C1666.782959,733.8984985,1670.744751,742.7302856,1670.744751,752.4703979z"/><path fill="#3d377c" d="M1635.4162598,717.1408081c19.4805908,0,35.3289795,15.8485107,35.3289795,35.3289795V896.34198
			c0,19.4804077-15.8483887,35.3290405-35.3289795,35.3290405h-235.1400146
			c-19.4805908,0-35.3292236-15.8486328-35.3292236-35.3290405V752.4697876
			c0-19.4804688,15.8486328-35.3289795,35.3292236-35.3289795H1635.4162598 M1635.4162598,712.6992798h-235.1400146
			c-21.9645996,0-39.7706299,17.8058472-39.7706299,39.7705078V896.34198c0,21.9645386,17.8060303,39.7705078,39.7706299,39.7705078
			h235.1400146c21.9645996,0,39.7705078-17.8059692,39.7705078-39.7705078V752.4697876
			C1675.1867676,730.505127,1657.3808594,712.6992798,1635.4162598,712.6992798L1635.4162598,712.6992798z"/><path fill="#3d377c" d="M1672.057373,770.3206787h-308.3685303c-1.2265625,0-2.2207031-0.9939575-2.2207031-2.2205811
			c0-1.2266846,0.9941406-2.2208252,2.2207031-2.2208252h308.3685303c1.2266846,0,2.2207031,0.9941406,2.2207031,2.2208252
			C1674.2780762,769.3267212,1673.2840576,770.3206787,1672.057373,770.3206787z"/><path fill="#4ed066" d="M1445.116333,743.0449829c0,3.0408936,2.4650879,5.5060425,5.5058594,5.5060425
			c3.0408936,0,5.5061035-2.4651489,5.5061035-5.5060425s-2.46521-5.5058594-5.5061035-5.5058594
			C1447.5814209,737.5391235,1445.116333,740.0040894,1445.116333,743.0449829z"/><path fill="#fb9b5b" d="M1421.1352539,743.0449829c0,3.0408936,2.4650879,5.5060425,5.5059814,5.5060425
			s5.5059814-2.4651489,5.5059814-5.5060425s-2.4650879-5.5058594-5.5059814-5.5058594
			S1421.1352539,740.0040894,1421.1352539,743.0449829z"/><path fill="#ff6482" d="M1397.1541748,743.0449829c0,3.0408936,2.4650879,5.5060425,5.5059814,5.5060425
			s5.5061035-2.4651489,5.5061035-5.5060425s-2.46521-5.5058594-5.5061035-5.5058594
			S1397.1541748,740.0040894,1397.1541748,743.0449829z"/><g><path fill="#4ed066" d="M1615.8227539,849.1187744h-16.4106445c-2.2663574,0-4.1026611-1.8363037-4.1026611-4.1026611
				c0-2.2662964,1.8363037-4.1027832,4.1026611-4.1027832h16.4106445c2.2664795,0,4.1029053,1.8364868,4.1029053,4.1027832
				C1619.9256592,847.2824707,1618.0892334,849.1187744,1615.8227539,849.1187744z"/><path fill="#ff6482" d="M1583.0014648,849.1187744h-16.4107666c-2.2663574,0-4.1026611-1.8363037-4.1026611-4.1026611
				c0-2.2662964,1.8363037-4.1027832,4.1026611-4.1027832h16.4107666c2.2662354,0,4.1026611,1.8364868,4.1026611,4.1027832
				C1587.104126,847.2824707,1585.2677002,849.1187744,1583.0014648,849.1187744z"/><path fill="#ff6482" d="M1550.1800537,849.1187744h-16.4110107c-2.2662354,0-4.1025391-1.8363037-4.1025391-4.1026611
				c0-2.2662964,1.8363037-4.1027832,4.1025391-4.1027832h16.4110107c2.2662354,0,4.1025391,1.8364868,4.1025391,4.1027832
				C1554.2825928,847.2824707,1552.4462891,849.1187744,1550.1800537,849.1187744z"/><path fill="#ff6482" d="M1517.3585205,849.1187744h-16.4108887c-2.2664795,0-4.1026611-1.8363037-4.1026611-4.1026611
				c0-2.2662964,1.8361816-4.1027832,4.1026611-4.1027832h16.4108887c2.2663574,0,4.1025391,1.8364868,4.1025391,4.1027832
				C1521.4610596,847.2824707,1519.6248779,849.1187744,1517.3585205,849.1187744z"/><path fill="#ebf2ff" d="M1484.5369873,849.1187744h-16.4106445c-2.2664795,0-4.1027832-1.8363037-4.1027832-4.1026611
				c0-2.2662964,1.8363037-4.1027832,4.1027832-4.1027832h16.4106445c2.2663574,0,4.1026611,1.8364868,4.1026611,4.1027832
				C1488.6396484,847.2824707,1486.8033447,849.1187744,1484.5369873,849.1187744z"/><path fill="#ebf2ff" d="M1451.7154541,849.1187744h-16.4105225c-2.2664795,0-4.1029053-1.8363037-4.1029053-4.1026611
				c0-2.2662964,1.8364258-4.1027832,4.1029053-4.1027832h16.4105225c2.2664795,0,4.1029053,1.8364868,4.1029053,4.1027832
				C1455.8183594,847.2824707,1453.9819336,849.1187744,1451.7154541,849.1187744z"/><path fill="#ebf2ff" d="M1418.894043,849.1187744h-16.4107666c-2.2662354,0-4.1025391-1.8363037-4.1025391-4.1026611
				c0-2.2662964,1.8363037-4.1027832,4.1025391-4.1027832h16.4107666c2.2663574,0,4.1027832,1.8364868,4.1027832,4.1027832
				C1422.9968262,847.2824707,1421.1604004,849.1187744,1418.894043,849.1187744z"/><path fill="#ebf2ff" d="M1633.2073975,806.1223145h-16.4108887c-2.2655029,0-4.1026611-1.8370361-4.1026611-4.1026001
				c0-2.265625,1.8371582-4.1027222,4.1026611-4.1027222h16.4108887c2.2657471,0,4.1026611,1.8370972,4.1026611,4.1027222
				C1637.3100586,804.2852783,1635.4731445,806.1223145,1633.2073975,806.1223145z"/><path fill="#ff6482" d="M1517.3585205,806.1223145h-16.4108887c-2.2664795,0-4.1026611-1.8363037-4.1026611-4.1026001
				c0-2.2664185,1.8361816-4.1027222,4.1026611-4.1027222h16.4108887c2.2663574,0,4.1025391,1.8363037,4.1025391,4.1027222
				C1521.4610596,804.2860107,1519.6248779,806.1223145,1517.3585205,806.1223145z M1484.5369873,806.1223145h-16.4106445
				c-2.2664795,0-4.1027832-1.8363037-4.1027832-4.1026001c0-2.2664185,1.8363037-4.1027222,4.1027832-4.1027222h16.4106445
				c2.2663574,0,4.1026611,1.8363037,4.1026611,4.1027222
				C1488.6396484,804.2860107,1486.8033447,806.1223145,1484.5369873,806.1223145z M1451.7154541,806.1223145h-16.4105225
				c-2.2664795,0-4.1029053-1.8363037-4.1029053-4.1026001c0-2.2664185,1.8364258-4.1027222,4.1029053-4.1027222h16.4105225
				c2.2664795,0,4.1029053,1.8363037,4.1029053,4.1027222
				C1455.8183594,804.2860107,1453.9819336,806.1223145,1451.7154541,806.1223145z M1418.894043,806.1223145h-16.4107666
				c-2.2662354,0-4.1025391-1.8363037-4.1025391-4.1026001c0-2.2664185,1.8363037-4.1027222,4.1025391-4.1027222h16.4107666
				c2.2663574,0,4.1027832,1.8363037,4.1027832,4.1027222
				C1422.9968262,804.2860107,1421.1604004,806.1223145,1418.894043,806.1223145z"/><path fill="#4ed066" d="M1591.6936035,806.1223145h-16.4106445c-2.2663574,0-4.1029053-1.8363037-4.1029053-4.1026001
				c0-2.2664185,1.8365479-4.1027222,4.1029053-4.1027222h16.4106445c2.2663574,0,4.1025391,1.8363037,4.1025391,4.1027222
				C1595.7961426,804.2860107,1593.9599609,806.1223145,1591.6936035,806.1223145z M1558.8720703,806.1223145h-16.4105225
				c-2.2664795,0-4.1029053-1.8363037-4.1029053-4.1026001c0-2.2664185,1.8364258-4.1027222,4.1029053-4.1027222h16.4105225
				c2.2664795,0,4.1027832,1.8363037,4.1027832,4.1027222
				C1562.9748535,804.2860107,1561.1385498,806.1223145,1558.8720703,806.1223145z"/><path fill="#ebf2ff" d="M1588.883667,892.1151733h-22.2929688c-2.265625,0-4.1026611-1.8369751-4.1026611-4.1027832
				c0-2.265564,1.8370361-4.1026001,4.1026611-4.1026001h22.2929688c2.2658691,0,4.1027832,1.8370361,4.1027832,4.1026001
				C1592.9864502,890.2781982,1591.1495361,892.1151733,1588.883667,892.1151733z"/><path fill="#ebf2ff" d="M1550.1800537,892.1151733h-16.4110107c-2.2655029,0-4.1025391-1.8369751-4.1025391-4.1027832
				c0-2.265564,1.8370361-4.1026001,4.1025391-4.1026001h16.4110107c2.2655029,0,4.1025391,1.8370361,4.1025391,4.1026001
				C1554.2825928,890.2781982,1552.4455566,892.1151733,1550.1800537,892.1151733z"/><path fill="#4ed066" d="M1517.3585205,892.1151733h-16.4108887c-2.265625,0-4.1026611-1.8369751-4.1026611-4.1027832
				c0-2.265564,1.8370361-4.1026001,4.1026611-4.1026001h16.4108887c2.265625,0,4.1025391,1.8370361,4.1025391,4.1026001
				C1521.4610596,890.2781982,1519.6241455,892.1151733,1517.3585205,892.1151733z"/><path fill="#4ed066" d="M1484.5369873,892.1151733h-16.4106445c-2.2658691,0-4.1027832-1.8369751-4.1027832-4.1027832
				c0-2.265564,1.8369141-4.1026001,4.1027832-4.1026001h16.4106445c2.265625,0,4.1026611,1.8370361,4.1026611,4.1026001
				C1488.6396484,890.2781982,1486.8026123,892.1151733,1484.5369873,892.1151733z"/><path fill="#4ed066" d="M1451.7154541,892.1151733h-16.4105225c-2.2659912,0-4.1029053-1.8369751-4.1029053-4.1027832
				c0-2.265564,1.8369141-4.1026001,4.1029053-4.1026001h16.4105225c2.2658691,0,4.1029053,1.8370361,4.1029053,4.1026001
				C1455.8183594,890.2781982,1453.9813232,892.1151733,1451.7154541,892.1151733z"/><path fill="#ff6482" d="M1418.894043,892.1151733h-16.4107666c-2.265625,0-4.1025391-1.8369751-4.1025391-4.1027832
				c0-2.265564,1.8369141-4.1026001,4.1025391-4.1026001h16.4107666c2.2657471,0,4.1027832,1.8370361,4.1027832,4.1026001
				C1422.9968262,890.2781982,1421.15979,892.1151733,1418.894043,892.1151733z"/><path fill="#ff6482" d="M1621.4033203,892.1151733h-16.4107666c-2.2662354,0-4.1025391-1.8363647-4.1025391-4.1027832
				c0-2.2662964,1.8363037-4.1026001,4.1025391-4.1026001h16.4107666c2.2663574,0,4.1027832,1.8363037,4.1027832,4.1026001
				C1625.5061035,890.2788086,1623.6696777,892.1151733,1621.4033203,892.1151733z"/></g></g><g><path fill="#ff6483" d="M696.8104858,865.7827148h-6c-1.6566772,0-3-1.3432007-3-3c0-1.6567383,1.3433228-3,3-3h6
			c1.6567993,0,3,1.3432617,3,3C699.8104858,864.4395142,698.4672852,865.7827148,696.8104858,865.7827148z"/><path fill="#ff6483" d="M678.5410156,865.7827148h-12.2700195c-1.6567383,0-3-1.3432007-3-3c0-1.6567383,1.3432617-3,3-3h12.2700195
			c1.6567383,0,3,1.3432617,3,3C681.5410156,864.4395142,680.1977539,865.7827148,678.5410156,865.7827148z
			 M654.0014648,865.7827148h-12.2700806c-1.6566772,0-3-1.3432007-3-3c0-1.6567383,1.3433228-3,3-3h12.2700806
			c1.6567383,0,3,1.3432617,3,3C657.0014648,864.4395142,655.6582031,865.7827148,654.0014648,865.7827148z
			 M629.4619141,865.7827148h-12.2700195c-1.6567383,0-3-1.3432007-3-3c0-1.6567383,1.3432617-3,3-3h12.2700195
			c1.6567993,0,3,1.3432617,3,3C632.4619141,864.4395142,631.1187134,865.7827148,629.4619141,865.7827148z M604.921875,865.7827148
			h-12.2695923c-1.6566772,0-3-1.3432007-3-3c0-1.6567383,1.3433228-3,3-3h12.2695923c1.6567383,0,3,1.3432617,3,3
			C607.921875,864.4395142,606.5786133,865.7827148,604.921875,865.7827148z M580.3822632,865.7827148h-12.2699585
			c-1.6567383,0-3-1.3432007-3-3c0-1.6567383,1.3432617-3,3-3h12.2699585c1.6567993,0,3,1.3432617,3,3
			C583.3822632,864.4395142,582.0390625,865.7827148,580.3822632,865.7827148z M555.8427734,865.7827148h-12.2699585
			c-1.6567993,0-3-1.3432007-3-3c0-1.6567383,1.3432007-3,3-3h12.2699585c1.6567383,0,3,1.3432617,3,3
			C558.8427734,864.4395142,557.4995117,865.7827148,555.8427734,865.7827148z M531.3031616,865.7827148h-12.2699585
			c-1.6567383,0-3-1.3432007-3-3c0-1.6567383,1.3432617-3,3-3h12.2699585c1.6568604,0,3,1.3432617,3,3
			C534.3031616,864.4395142,532.960022,865.7827148,531.3031616,865.7827148z M506.7631836,865.7827148h-12.2695007
			c-1.6567993,0-3-1.3432007-3-3c0-1.6567383,1.3432007-3,3-3h12.2695007c1.6567078,0,3,1.3432617,3,3
			C509.7631836,864.4395142,508.4198914,865.7827148,506.7631836,865.7827148z M482.2236023,865.7827148h-12.2695007
			c-1.6567078,0-3-1.3432007-3-3c0-1.6567383,1.3432922-3,3-3h12.2695007c1.6567993,0,3,1.3432617,3,3
			C485.2236023,864.4395142,483.8804016,865.7827148,482.2236023,865.7827148z M457.684082,865.7827148h-12.269989
			c-1.6567993,0-3-1.3432007-3-3c0-1.6567383,1.3432007-3,3-3h12.269989c1.6567078,0,3,1.3432617,3,3
			C460.684082,864.4395142,459.3407898,865.7827148,457.684082,865.7827148z M433.1445007,865.7827148h-12.2700195
			c-1.6566772,0-3-1.3432007-3-3c0-1.6567383,1.3433228-3,3-3h12.2700195c1.6567993,0,3,1.3432617,3,3
			C436.1445007,864.4395142,434.8013,865.7827148,433.1445007,865.7827148z M408.6044922,865.7827148h-12.2695007
			c-1.6567993,0-3-1.3432007-3-3c0-1.6567383,1.3432007-3,3-3h12.2695007c1.6567078,0,3,1.3432617,3,3
			C411.6044922,864.4395142,410.2612,865.7827148,408.6044922,865.7827148z"/><path fill="#ff6483" d="M384.0648804,865.7827148h-6c-1.6566772,0-3-1.3432007-3-3v-6c0-1.6567383,1.3433228-3,3-3
			c1.6567993,0,3,1.3432617,3,3v3h3c1.6567993,0,3,1.3432617,3,3
			C387.0648804,864.4395142,385.7216797,865.7827148,384.0648804,865.7827148z"/><path fill="#ff6483" d="M378.0648804,848.3925781c-1.6566772,0-3-1.3432617-3-3v-11.3901978c0-1.6566772,1.3433228-3,3-3
			c1.6567993,0,3,1.3433228,3,3v11.3901978C381.0648804,847.0493164,379.7216797,848.3925781,378.0648804,848.3925781z
			 M378.0648804,825.6123047c-1.6566772,0-3-1.3433228-3-3V811.222229c0-1.6567993,1.3433228-3,3-3c1.6567993,0,3,1.3432007,3,3
			v11.3900757C381.0648804,824.2689819,379.7216797,825.6123047,378.0648804,825.6123047z M378.0648804,802.8319702
			c-1.6566772,0-3-1.3432007-3-3v-11.3900757c0-1.6566772,1.3433228-3,3-3c1.6567993,0,3,1.3433228,3,3v11.3900757
			C381.0648804,801.4887695,379.7216797,802.8319702,378.0648804,802.8319702z M378.0648804,780.0518188
			c-1.6566772,0-3-1.3433228-3-3v-11.3901978c0-1.6567383,1.3433228-3,3-3c1.6567993,0,3,1.3432617,3,3v11.3901978
			C381.0648804,778.7084961,379.7216797,780.0518188,378.0648804,780.0518188z M378.0648804,757.2714844
			c-1.6566772,0-3-1.3432617-3-3v-11.3901978c0-1.6566772,1.3433228-3,3-3c1.6567993,0,3,1.3433228,3,3v11.3901978
			C381.0648804,755.9282227,379.7216797,757.2714844,378.0648804,757.2714844z M378.0648804,734.4912109
			c-1.6566772,0-3-1.3433228-3-3v-11.3901367c0-1.6567993,1.3433228-3,3-3c1.6567993,0,3,1.3432007,3,3v11.3901367
			C381.0648804,733.1478882,379.7216797,734.4912109,378.0648804,734.4912109z M378.0648804,711.7108765
			c-1.6566772,0-3-1.3432007-3-3v-11.3900757c0-1.6566772,1.3433228-3,3-3c1.6567993,0,3,1.3433228,3,3v11.3900757
			C381.0648804,710.3676758,379.7216797,711.7108765,378.0648804,711.7108765z M378.0648804,688.9307251
			c-1.6566772,0-3-1.3433228-3-3v-11.3901978c0-1.6567383,1.3433228-3,3-3c1.6567993,0,3,1.3432617,3,3v11.3901978
			C381.0648804,687.5874023,379.7216797,688.9307251,378.0648804,688.9307251z M378.0648804,666.1503906
			c-1.6566772,0-3-1.3432617-3-3v-11.3900757c0-1.6567993,1.3433228-3,3-3c1.6567993,0,3,1.3432007,3,3v11.3900757
			C381.0648804,664.8071289,379.7216797,666.1503906,378.0648804,666.1503906z"/><path fill="#ff6483" d="M378.0648804,643.3701172c-1.6566772,0-3-1.3432007-3-3v-6c0-1.6567383,1.3433228-3,3-3
			c1.6567993,0,3,1.3432617,3,3v6C381.0648804,642.0269165,379.7216797,643.3701172,378.0648804,643.3701172z"/><g><circle cx="696.134" cy="862.783" r="13.535" fill="#ff6483" transform="rotate(-67.381 696.134 862.783)"/></g><g><path fill="#ff6483" d="M391.6001892,635.0471191c0-7.4743042-6.0610046-13.5353394-13.5351868-13.5353394
				c-7.4742126,0-13.5352173,6.0610352-13.5352173,13.5353394c0,7.4740601,6.0610046,13.5350952,13.5352173,13.5350952
				C385.5391846,648.5822144,391.6001892,642.5211792,391.6001892,635.0471191z"/></g></g><g><path fill="#ff6483" d="M663.4746094,1233.8496094c-1.6567383,0-3-1.3427734-3-3v-12c0-1.6572266,1.3432617-3,3-3
			c1.6566772,0,3,1.3427734,3,3v12C666.4746094,1232.5068359,665.1312866,1233.8496094,663.4746094,1233.8496094z
			 M663.4746094,1209.8496094c-1.6567383,0-3-1.3427734-3-3v-12c0-1.6572266,1.3432617-3,3-3c1.6566772,0,3,1.3427734,3,3v12
			C666.4746094,1208.5068359,665.1312866,1209.8496094,663.4746094,1209.8496094z M663.4746094,1185.8496094
			c-1.6567383,0-3-1.3427734-3-3v-12c0-1.6572266,1.3432617-3,3-3c1.6566772,0,3,1.3427734,3,3v12
			C666.4746094,1184.5068359,665.1312866,1185.8496094,663.4746094,1185.8496094z M663.4746094,1161.8496094
			c-1.6567383,0-3-1.3427734-3-3v-2.6962891c0-1.6572266,1.3432617-3,3-3h9.3036499c1.6567993,0,3,1.3427734,3,3s-1.3432007,3-3,3
			h-6.3187866C666.3070679,1160.6679688,665.0288086,1161.8496094,663.4746094,1161.8496094z M999.8378906,1159.1533203h-3.0596313
			c-1.6566772,0-3-1.3427734-3-3s1.3433228-3,3-3h0.0596313v-5.9404297c0-1.6572266,1.3432617-3,3-3c1.6572266,0,3,1.3427734,3,3
			v8.9404297C1002.8378906,1157.8105469,1001.4951172,1159.1533203,999.8378906,1159.1533203z M984.7782593,1159.1533203h-12
			c-1.6566772,0-3-1.3427734-3-3s1.3433228-3,3-3h12c1.6567993,0,3,1.3427734,3,3
			S986.4350586,1159.1533203,984.7782593,1159.1533203z M960.7782593,1159.1533203h-12c-1.6566772,0-3-1.3427734-3-3
			s1.3433228-3,3-3h12c1.6567993,0,3,1.3427734,3,3S962.4350586,1159.1533203,960.7782593,1159.1533203z M936.7782593,1159.1533203
			h-12c-1.6566772,0-3-1.3427734-3-3s1.3433228-3,3-3h12c1.6567993,0,3,1.3427734,3,3
			S938.4350586,1159.1533203,936.7782593,1159.1533203z M912.7782593,1159.1533203h-12c-1.6566772,0-3-1.3427734-3-3
			s1.3433228-3,3-3h12c1.6567993,0,3,1.3427734,3,3S914.4350586,1159.1533203,912.7782593,1159.1533203z M888.7782593,1159.1533203
			h-12c-1.6566772,0-3-1.3427734-3-3s1.3433228-3,3-3h12c1.6567993,0,3,1.3427734,3,3
			S890.4350586,1159.1533203,888.7782593,1159.1533203z M864.7782593,1159.1533203h-12c-1.6566772,0-3-1.3427734-3-3
			s1.3433228-3,3-3h12c1.6567993,0,3,1.3427734,3,3S866.4350586,1159.1533203,864.7782593,1159.1533203z M840.7782593,1159.1533203
			h-12c-1.6566772,0-3-1.3427734-3-3s1.3433228-3,3-3h12c1.6567993,0,3,1.3427734,3,3
			S842.4350586,1159.1533203,840.7782593,1159.1533203z M816.7782593,1159.1533203h-12c-1.6566772,0-3-1.3427734-3-3
			s1.3433228-3,3-3h12c1.6567993,0,3,1.3427734,3,3S818.4350586,1159.1533203,816.7782593,1159.1533203z M792.7782593,1159.1533203
			h-12c-1.6566772,0-3-1.3427734-3-3s1.3433228-3,3-3h12c1.6567993,0,3,1.3427734,3,3
			S794.4350586,1159.1533203,792.7782593,1159.1533203z M768.7782593,1159.1533203h-12c-1.6566772,0-3-1.3427734-3-3
			s1.3433228-3,3-3h12c1.6567993,0,3,1.3427734,3,3S770.4350586,1159.1533203,768.7782593,1159.1533203z M744.7782593,1159.1533203
			h-12c-1.6566772,0-3-1.3427734-3-3s1.3433228-3,3-3h12c1.6567993,0,3,1.3427734,3,3
			S746.4350586,1159.1533203,744.7782593,1159.1533203z M720.7782593,1159.1533203h-12c-1.6566772,0-3-1.3427734-3-3
			s1.3433228-3,3-3h12c1.6567993,0,3,1.3427734,3,3S722.4350586,1159.1533203,720.7782593,1159.1533203z M696.7782593,1159.1533203
			h-12c-1.6566772,0-3-1.3427734-3-3s1.3433228-3,3-3h12c1.6567993,0,3,1.3427734,3,3
			S698.4350586,1159.1533203,696.7782593,1159.1533203z M999.8378906,1138.2128906c-1.6567383,0-3-1.3427734-3-3v-12
			c0-1.6572266,1.3432617-3,3-3c1.6572266,0,3,1.3427734,3,3v12
			C1002.8378906,1136.8701172,1001.4951172,1138.2128906,999.8378906,1138.2128906z M999.8378906,1114.2128906
			c-1.6567383,0-3-1.3427734-3-3v-12c0-1.6572266,1.3432617-3,3-3c1.6572266,0,3,1.3427734,3,3v12
			C1002.8378906,1112.8701172,1001.4951172,1114.2128906,999.8378906,1114.2128906z"/><g><circle cx="999.838" cy="1099.89" r="13.535" fill="#ff6483" transform="rotate(-31.6 999.838 1099.89)"/></g><g><path fill="#ff6483" d="M649.939209,1240.0671387c0,7.4742432,6.0608521,13.5352783,13.5351562,13.5352783
				c7.4741211,0,13.5350952-6.0610352,13.5350952-13.5352783c0-7.4741211-6.0609741-13.5350342-13.5350952-13.5350342
				C656.000061,1226.5321045,649.939209,1232.5930176,649.939209,1240.0671387z"/></g></g><g><path fill="#ff6483" d="M1510.1708984,669.1582031c-1.6572266,0-3-1.3433228-3-3v-12c0-1.6566772,1.3427734-3,3-3s3,1.3433228,3,3
			v12C1513.1708984,667.8148804,1511.828125,669.1582031,1510.1708984,669.1582031z M1510.1708984,645.1582031
			c-1.6572266,0-3-1.3433228-3-3v-12c0-1.6566772,1.3427734-3,3-3s3,1.3433228,3,3v12
			C1513.1708984,643.8148804,1511.828125,645.1582031,1510.1708984,645.1582031z M1510.1708984,621.1582031
			c-1.6572266,0-3-1.3433228-3-3v-12c0-1.6566772,1.3427734-3,3-3s3,1.3433228,3,3v12
			C1513.1708984,619.8148804,1511.828125,621.1582031,1510.1708984,621.1582031z M1001.9960938,601.0166016
			c-1.6566772,0-3-1.3433228-3-3v-12c0-1.6566772,1.3433228-3,3-3c1.6572266,0,3,1.3433228,3,3v12
			C1004.9960938,599.6732788,1003.6533203,601.0166016,1001.9960938,601.0166016z M1510.1708984,597.1582031
			c-1.6572266,0-3-1.3433228-3-3v-12c0-1.6566772,1.3427734-3,3-3s3,1.3433228,3,3v12
			C1513.1708984,595.8148804,1511.828125,597.1582031,1510.1708984,597.1582031z M1001.9960938,577.0166016
			c-1.6566772,0-3-1.3433228-3-3v-12c0-1.6566772,1.3433228-3,3-3c1.6572266,0,3,1.3433228,3,3v12
			C1004.9960938,575.6732788,1003.6533203,577.0166016,1001.9960938,577.0166016z M1510.1708984,573.1582031
			c-1.6572266,0-3-1.3433228-3-3v-12c0-1.6566772,1.3427734-3,3-3s3,1.3433228,3,3v12
			C1513.1708984,571.8148804,1511.828125,573.1582031,1510.1708984,573.1582031z M1001.9960938,553.0166016
			c-1.6566772,0-3-1.3433228-3-3v-5.8417969c0-1.6566772,1.3433228-3,3-3h6.1582031c1.6572266,0,3,1.3433228,3,3s-1.3427734,3-3,3
			h-3.1582031v2.8417969C1004.9960938,551.6732788,1003.6533203,553.0166016,1001.9960938,553.0166016z M1510.1708984,549.1582031
			c-1.2998047,0-2.4072266-0.8267212-2.8232422-1.9833984h-7.1933594c-1.6572266,0-3-1.3433228-3-3s1.3427734-3,3-3h10.0166016
			c1.6572266,0,3,1.3433228,3,3v1.9833984C1513.1708984,547.8148804,1511.828125,549.1582031,1510.1708984,549.1582031z
			 M1488.1542969,547.1748047h-12c-1.6572266,0-3-1.3433228-3-3s1.3427734-3,3-3h12c1.6572266,0,3,1.3433228,3,3
			S1489.8115234,547.1748047,1488.1542969,547.1748047z M1464.1542969,547.1748047h-12c-1.6572266,0-3-1.3433228-3-3
			s1.3427734-3,3-3h12c1.6572266,0,3,1.3433228,3,3S1465.8115234,547.1748047,1464.1542969,547.1748047z M1440.1542969,547.1748047
			h-12c-1.6572266,0-3-1.3433228-3-3s1.3427734-3,3-3h12c1.6572266,0,3,1.3433228,3,3
			S1441.8115234,547.1748047,1440.1542969,547.1748047z M1416.1542969,547.1748047h-12c-1.6572266,0-3-1.3433228-3-3
			s1.3427734-3,3-3h12c1.6572266,0,3,1.3433228,3,3S1417.8115234,547.1748047,1416.1542969,547.1748047z M1392.1542969,547.1748047
			h-12c-1.6572266,0-3-1.3433228-3-3s1.3427734-3,3-3h12c1.6572266,0,3,1.3433228,3,3
			S1393.8115234,547.1748047,1392.1542969,547.1748047z M1368.1542969,547.1748047h-12c-1.6572266,0-3-1.3433228-3-3
			s1.3427734-3,3-3h12c1.6572266,0,3,1.3433228,3,3S1369.8115234,547.1748047,1368.1542969,547.1748047z M1344.1542969,547.1748047
			h-12c-1.6572266,0-3-1.3433228-3-3s1.3427734-3,3-3h12c1.6572266,0,3,1.3433228,3,3
			S1345.8115234,547.1748047,1344.1542969,547.1748047z M1320.1542969,547.1748047h-12c-1.6572266,0-3-1.3433228-3-3
			s1.3427734-3,3-3h12c1.6572266,0,3,1.3433228,3,3S1321.8115234,547.1748047,1320.1542969,547.1748047z M1296.1542969,547.1748047
			h-12c-1.6572266,0-3-1.3433228-3-3s1.3427734-3,3-3h12c1.6572266,0,3,1.3433228,3,3
			S1297.8115234,547.1748047,1296.1542969,547.1748047z M1272.1542969,547.1748047h-12c-1.6572266,0-3-1.3433228-3-3
			s1.3427734-3,3-3h12c1.6572266,0,3,1.3433228,3,3S1273.8115234,547.1748047,1272.1542969,547.1748047z M1248.1542969,547.1748047
			h-12c-1.6572266,0-3-1.3433228-3-3s1.3427734-3,3-3h12c1.6572266,0,3,1.3433228,3,3
			S1249.8115234,547.1748047,1248.1542969,547.1748047z M1224.1542969,547.1748047h-12c-1.6572266,0-3-1.3433228-3-3
			s1.3427734-3,3-3h12c1.6572266,0,3,1.3433228,3,3S1225.8115234,547.1748047,1224.1542969,547.1748047z M1200.1542969,547.1748047
			h-12c-1.6572266,0-3-1.3433228-3-3s1.3427734-3,3-3h12c1.6572266,0,3,1.3433228,3,3
			S1201.8115234,547.1748047,1200.1542969,547.1748047z M1176.1542969,547.1748047h-12c-1.6572266,0-3-1.3433228-3-3
			s1.3427734-3,3-3h12c1.6572266,0,3,1.3433228,3,3S1177.8115234,547.1748047,1176.1542969,547.1748047z M1152.1542969,547.1748047
			h-12c-1.6572266,0-3-1.3433228-3-3s1.3427734-3,3-3h12c1.6572266,0,3,1.3433228,3,3
			S1153.8115234,547.1748047,1152.1542969,547.1748047z M1128.1542969,547.1748047h-12c-1.6572266,0-3-1.3433228-3-3
			s1.3427734-3,3-3h12c1.6572266,0,3,1.3433228,3,3S1129.8115234,547.1748047,1128.1542969,547.1748047z M1104.1542969,547.1748047
			h-12c-1.6572266,0-3-1.3433228-3-3s1.3427734-3,3-3h12c1.6572266,0,3,1.3433228,3,3
			S1105.8115234,547.1748047,1104.1542969,547.1748047z M1080.1542969,547.1748047h-12c-1.6572266,0-3-1.3433228-3-3
			s1.3427734-3,3-3h12c1.6572266,0,3,1.3433228,3,3S1081.8115234,547.1748047,1080.1542969,547.1748047z M1056.1542969,547.1748047
			h-12c-1.6572266,0-3-1.3433228-3-3s1.3427734-3,3-3h12c1.6572266,0,3,1.3433228,3,3
			S1057.8115234,547.1748047,1056.1542969,547.1748047z M1032.1542969,547.1748047h-12c-1.6572266,0-3-1.3433228-3-3
			s1.3427734-3,3-3h12c1.6572266,0,3,1.3433228,3,3S1033.8115234,547.1748047,1032.1542969,547.1748047z"/><g><path fill="#ff6483" d="M1015.5310059,597.3400269c0,7.4742432-6.0610352,13.5352783-13.5352173,13.5352783
				c-7.4742432,0-13.5352173-6.0610352-13.5352173-13.5352783c0-7.4741211,6.0609741-13.5350342,13.5352173-13.5350342
				C1009.4699707,583.8049927,1015.5310059,589.8659058,1015.5310059,597.3400269z"/></g><g><path fill="#ff6483" d="M1496.6357422,670.3104248c0,7.4743042,6.0609131,13.5352783,13.5351562,13.5352783
				s13.5351562-6.0609741,13.5351562-13.5352783c0-7.4741211-6.0609131-13.5350342-13.5351562-13.5350342
				S1496.6357422,662.8363037,1496.6357422,670.3104248z"/></g></g></g><g><path fill="#ffc5cd" d="M1367.3337402,1320.454834l-28.9641113,105.6534424
		c-3.5360107,12.8985596,3.2683105,26.3792725,15.7456055,31.1950684h0.0001221
		c13.1513672,5.0760498,27.9547119-1.2288818,33.4075928-14.2283936l40.1958008-95.8269043L1367.3337402,1320.454834z"/><path fill="#5777fa" d="M1459.6343994,1326.5914307c-10.9909668,26.2972412-24.2037354,50.9177246-31.0184326,53.7695312
		c-7.8934326,3.3006592-24.3426514,1.815918-41.0161133-2.104126c-22.4627686-5.2764893-45.3419189-14.9644775-48.3328857-23.338623
		c-1.8049316-5.0415039,17.7310791-54.9445801,31.9691162-91.0366211
		c14.6655273-37.1601562,49.7159424-54.3726807,84.6429443-65.3647461c0,0,18.9335938,44.1090088,21.5717773,65.3647461
		C1478.7434082,1274.3172607,1470.2303467,1301.2340088,1459.6343994,1326.5914307z"/><path fill="#435bdb" d="M1459.6343994,1326.5914307c-10.9909668,26.2972412-24.2037354,50.9177246-31.0184326,53.7695312
		c-7.8934326,3.3006592-24.3426514,1.815918-41.0161133-2.104126c7.9790039-24.8339844,18.4038086-99.859375,18.4038086-99.859375
		l44.3808594-34.8850098L1459.6343994,1326.5914307z"/><path fill="#5777fa" d="M1638.7596436,1565.157959c-1.6555176,16.887085-2.9158936,27.2265625-2.9158936,27.2265625h-242.4440918
		c0,0,1.4207764-6.590332,3.8240967-19.0554199c2.3604736-12.2834473,5.6717529-30.2600098,9.5063477-53.2675781
		c2.3925781-14.3875732,3.5140381-35.5366211,3.855957-59.1208496c0.7583008-52.348999-2.3498535-116.7252197-3.855957-145.8850098
		c-4.0909424-79.3192139,3.364624-118.1243896,92.157959-123.5078125
		c70.913208-4.3044434,113.1362305,44.4984131,133.4094238,112.3565674
		c2.8305664,9.4956055,5.2445068,19.3651123,7.2419434,29.5230713
		C1652.5384521,1399.5019531,1643.8226318,1513.2683105,1638.7596436,1565.157959z"/><path fill="#435bdb" d="M1638.7596436,1565.157959l-241.5358887,8.1711426
		c2.3604736-12.2834473,5.6717529-30.2600098,9.5063477-53.2675781c2.3925781-14.3875732,3.5140381-35.5366211,3.855957-59.1208496
		c6.3424072,9.8466797,19.4578857,12.5750732,25.5950928,11.8120117
		c71.1459961-8.8439941,143.8640137-37.3416748,143.8640137-37.3416748l-2.8310547-9.024292
		c0,0-8.6519775,3.9306641-16.395874-7.6798096c-7.7438965-11.6105957-13.9816895-98.2572021-13.9816895-98.2572021
		l85.4609375-16.5452881c2.8305664,9.4956055,5.2445068,19.3651123,7.2419434,29.5230713
		C1652.5384521,1399.5019531,1643.8226318,1513.2683105,1638.7596436,1565.157959z"/><g><ellipse cx="1535.077" cy="1119.337" fill="#2e234f" rx="34.556" ry="27.06" transform="rotate(-60 1535.077 1119.337)"/><circle cx="1451.583" cy="1065.926" r="25.861" fill="#2e234f" transform="rotate(-4.843 1451.584 1065.925)"/><path fill="#ffc5cd" d="M1529.6296387,1193.7242432c-1.1442871,14.7923584-31.1169434,44.0091553-45,39.0749512
			c-13.8729248-4.9239502-17.2236328-17.4482422-14.5675049-27.6945801
			c0.2042236-0.7866211,0.3676758-1.7163086,0.4902344-2.7684326c1.4301758-12.4836426-2.7683105-41.2407227-2.7683105-41.2407227
			s6.262085-7.4267578,14.6900635-16.6107178c16.0998535-17.5606689,41.7055664-42.9882812,44.9439697-33.7736816
			C1532.3521729,1124.7473145,1530.7635498,1178.9320068,1529.6296387,1193.7242432z"/><path fill="#d6798e" d="M1515.9761963,1158.9051514c0,0-11.9647217,35.7102051-45.4238281,43.4310303
			c1.4301758-12.4836426-2.7683105-41.2407227-2.7683105-41.2407227s6.262085-7.4267578,14.6900635-16.6107178
			L1515.9761963,1158.9051514z"/><path fill="#ffc5cd" d="M1530.1704102,1143.1574707c-7.7275391,15.5432129-53.4306641,45.8852539-67.3034668,43.3415527
			c-13.862793-2.5437012-27.3371582-32.2202148-29.4824219-39.0646973c-2.1556396-6.8342285,0.2144775-48.4324951,0-55.848999
			c0-0.0817871,0-0.1737061-0.0102539-0.2553711c-0.0408936-1.7061768-0.0408936-3.3609619,0-4.9750977
			c0.3112793-14.2969971,3.611084-25.2325439,6.9349365-32.7132568
			c3.3634033-7.5693359,10.7716064-12.5698242,19.0507812-12.8197021
			c47.0478516-1.4205322,64.0786133,19.5812988,74.6169434,39.4945068
			C1545.3615723,1101.8288574,1530.1704102,1143.1574707,1530.1704102,1143.1574707z"/><ellipse cx="1477.45" cy="1112.522" fill="#2e234f" rx="4.159" ry="8.924"/><path fill="#2e234f" d="M1439.2816162,1112.4156494c0,4.3172607-1.7354736,7.8170166-3.8759766,7.8170166
			c-2.1407471,0-3.8760986-3.4997559-3.8760986-7.8170166c0-4.3173828,1.7353516-7.8172607,3.8760986-7.8172607
			C1437.5461426,1104.5983887,1439.2816162,1108.0982666,1439.2816162,1112.4156494z"/><path fill="#2e234f" d="M1489.3798828,1094.7290039c0.3670654,0.5841064-0.2479248,1.2873535-0.8753662,1.0007324
			c-2.4683838-1.1276855-6.7757568-2.8994141-9.645874-2.987793c-4.2255859-0.1300049-8.1914062,0.5852051-8.6464844-0.2600098
			c-0.4550781-0.8450928,1.6903076-5.3310547,9.2316895-4.6158447
			C1484.6081543,1088.355835,1487.8494873,1092.2945557,1489.3798828,1094.7290039z"/><path fill="#2e234f" d="M1441.5262451,1092.8214111c-0.6025391,0.7150879-4.137207-0.7150879-8.1519775-1.4914551
			c-0.0408936-1.7061768-0.0408936-3.3609619,0-4.9750977c0.0306396,0,0.0715332,0.0102539,0.1021729,0.0102539
			C1440.9951172,1087.2537842,1442.1495361,1092.0959473,1441.5262451,1092.8214111z"/><path fill="#d6798e" d="M1443.8167725,1143.5748291c-1.6295166,0-3.0556641-0.4200439-3.9764404-1.5343018
			c-2.4283447-2.9390869,1.1776123-15.295166,6.1433105-31.1433105c1.2554932-4.0080566,2.340332-7.4692383,2.7658691-9.2999268
			c0.1276855-0.5501709,0.6783447-0.8902588,1.2265625-0.7636719c0.5496826,0.1276855,0.8914795,0.6768799,0.7636719,1.2265625
			c-0.4434814,1.9055176-1.538208,5.4007568-2.8067627,9.447998c-2.7369385,8.7357178-8.432373,26.9129639-6.5174561,29.2314453
			c1.9263916,2.3303223,9.7272949-0.9118652,13.2044678-2.84729c0.4924316-0.2738037,1.1148682-0.0977783,1.3891602,0.3955078
			c0.2744141,0.4927979,0.0979004,1.1148682-0.3948975,1.3892822
			C1454.6954346,1140.1888428,1448.4412842,1143.5743408,1443.8167725,1143.5748291z"/><g><path fill="#ea5f61" d="M1465.7081299,1161.0941162c-2.0380859,0-4.0179443-0.668457-5.9099121-1.9997559
				c-3.2697754-2.2945557-5.3212891-5.907959-6.0511475-7.3549805c-0.1865234-0.3511963-0.2788086-0.5787354-0.2788086-0.5787354
				c-0.1087646-0.2667236-0.1002197-0.5695801,0.0244141-0.8294678c0.1247559-0.2593994,0.3521729-0.4569092,0.62854-0.5391846
				l25.7521973-7.6651611c0.3056641-0.0848389,0.6364746-0.026001,0.8918457,0.1645508
				c0.2553711,0.19104,0.4064941,0.4903564,0.4095459,0.80896c0.0014648,0.2006836,0.0134277,4.9642334-2.510498,9.6231689
				c-2.2806396,4.2059326-5.8515625,6.9255371-10.6132812,8.0817871
				C1467.2629395,1160.9978027,1466.4813232,1161.0941162,1465.7081299,1161.0941162z M1455.8790283,1151.4007568
				c0.788208,1.4295654,2.5544434,4.2398682,5.0938721,6.0220947c2.1070557,1.4829102,4.3266602,1.9503174,6.5948486,1.3977051
				c4.1779785-1.0151367,7.3065186-3.3939209,9.300293-7.0708008c1.4919434-2.7532959,2.0007324-5.6065674,2.1738281-7.2456055
				L1455.8790283,1151.4007568z"/><path fill="#911e26" d="M1480.1534424,1143.1092529c0,0,0.0400391,4.6468506-2.3875732,9.1275635
				c-1.734375,3.1986084-4.75354,6.3125-9.9558105,7.5756836c-2.9036865,0.7102051-5.4060059-0.1335449-7.4237061-1.5539551
				c-3.0887451-2.1669922-5.0709229-5.6784668-5.7272949-6.9797363c-0.166626-0.314209-0.2467041-0.5076904-0.2467041-0.5076904
				l25.5726318-7.6136475L1480.1534424,1143.1092529z"/><path fill="#fff" d="M1479.9849854,1143.1574707c-2.6044922,2.182373-9.9353027,8.0081787-15.2530518,9.4002686
				c-4.4744873,1.1656494-8.1726074-0.2504883-10.072876-1.2789307c-0.166626-0.314209-0.2467041-0.5076904-0.2467041-0.5076904
				L1479.9849854,1143.1574707z"/><path fill="#cb4b51" d="M1477.7658691,1152.2368164c-1.734375,3.1986084-4.75354,6.3125-9.9558105,7.5756836
				c-2.9036865,0.7102051-5.4060059-0.1335449-7.4237061-1.5539551c1.9526367-1.6729736,5.2747803-4.1696777,8.6945801-5.0546875
				C1472.0367432,1152.4445801,1475.3763428,1152.2501221,1477.7658691,1152.2368164z"/></g><circle cx="1455.117" cy="1040.754" r="39.439" fill="#2e234f" transform="rotate(-9.655 1455.118 1040.754)"/><circle cx="1506.247" cy="1054.885" r="31.376" fill="#2e234f"/><circle cx="1499.295" cy="1030.627" r="30.618" fill="#2e234f" transform="rotate(-12.322 1499.295 1030.627)"/><circle cx="1541.884" cy="1050.523" r="21.939" fill="#2e234f" transform="rotate(-9.116 1541.885 1050.523)"/><circle cx="1529.92" cy="1030.627" r="12.209" fill="#2e234f"/><ellipse cx="1546.341" cy="1085.188" fill="#2e234f" rx="30.931" ry="24.221" transform="rotate(-41.183 1546.34 1085.188)"/><path fill="#ffc5cd" d="M1541.8591309,1098.8995361c8.5797119,5.1572266,4.5211182,25.2442627-7.2080078,31.2041016
			c-3.385376,1.7202148-12.2015381-11.713501-10.2873535-19.456543S1531.713501,1092.8010254,1541.8591309,1098.8995361z"/><path fill="#2e234f" d="M1519.444458,1083.3509521c0,0-18.0124512,25.4071045,5.5667725,35.9858398
			c0,0-1.2520752-13.2125244,3.8994141-18.5479736L1519.444458,1083.3509521z"/><path fill="#d6798e" d="M1528.9119873,1114.8212891c-0.043335,0-0.086792-0.0024414-0.1307373-0.0079346
			c-0.5595703-0.0718994-0.9556885-0.5831299-0.8843994-1.1427002c0.8061523-6.3120117,2.612793-10.4621582,5.3702393-12.3345947
			c2.0128174-1.3673096,3.7580566-0.9752197,3.9500732-0.9259033c0.5467529,0.1401367,0.8764648,0.6962891,0.7363281,1.243042
			c-0.1391602,0.5412598-0.6828613,0.8693848-1.2286377,0.7397461c-0.067749-0.013916-1.1102295-0.2139893-2.3787842,0.6809082
			c-1.5223389,1.0739746-3.5250244,3.8293457-4.4219971,10.8551025
			C1529.8582764,1114.4447021,1529.418335,1114.8212891,1528.9119873,1114.8212891z"/><g><path fill="#2e234f" d="M1467.4829102,1142.1795654c-10.5539551,0-19.1398926-12.7769775-19.1398926-28.4820557
				c0-15.7045898,8.5859375-28.4815674,19.1398926-28.4815674c10.553833,0,19.1398926,12.7769775,19.1398926,28.4815674
				C1486.6228027,1129.4025879,1478.0367432,1142.1795654,1467.4829102,1142.1795654z M1467.4829102,1087.2590332
				c-9.427002,0-17.0968018,11.8601074-17.0968018,26.4384766c0,14.5782471,7.6697998,26.4389648,17.0968018,26.4389648
				s17.0968018-11.8607178,17.0968018-26.4389648C1484.5797119,1099.1191406,1476.9099121,1087.2590332,1467.4829102,1087.2590332z"/><path fill="#2e234f" d="M1428.6195068,1132.8105469c-8.407959,0-15.2486572-11.2033691-15.2486572-24.9735107
				c0-13.7702637,6.8406982-24.9735107,15.2486572-24.9735107s15.2486572,11.2032471,15.2486572,24.9735107
				C1443.8681641,1121.6071777,1437.0274658,1132.8105469,1428.6195068,1132.8105469z M1428.6195068,1084.9066162
				c-7.2817383,0-13.2055664,10.286499-13.2055664,22.9304199c0,12.6437988,5.9238281,22.9302979,13.2055664,22.9302979
				c7.2816162,0,13.2054443-10.286499,13.2054443-22.9302979
				C1441.8249512,1095.1931152,1435.901123,1084.9066162,1428.6195068,1084.9066162z"/><path fill="#2e234f" d="M1449.3636475,1112.7822266c-0.15625,0-0.3153076-0.0358887-0.4639893-0.1118164
				c-0.0638428-0.0324707-3.1350098-1.543335-5.7987061-0.3869629c-0.5187988,0.2258301-1.1192627-0.012085-1.34375-0.5299072
				c-0.2249756-0.5170898,0.0119629-1.1192627,0.5296631-1.34375c3.5765381-1.5548096,7.3839111,0.3592529,7.5441895,0.4420166
				c0.501709,0.2574463,0.699707,0.8734131,0.4423828,1.3752441
				C1450.0922852,1112.5797119,1449.7347412,1112.7822266,1449.3636475,1112.7822266z"/><path fill="#2e234f" d="M1524.0949707,1114.7191162h-38.4937744c-0.5640869,0-1.0214844-0.4573975-1.0214844-1.0216064
				s0.4573975-1.0216064,1.0214844-1.0216064h38.4937744c0.564209,0,1.0216064,0.4573975,1.0216064,1.0216064
				S1524.6591797,1114.7191162,1524.0949707,1114.7191162z"/></g></g><g><path fill="#1c143a" d="M1709.993042,1528.1827393c-2.3560791,25.5493164-41.6536865,124.1053467-104.6547852,133.4619141
			c-63.0010986,9.3566895-197.7595215-82.3380127-204.2973633-106.0413818s21.4573975-37.842041,49.5272217-37.842041
			c9.979126,0,43.0102539,2.008667,79.8554688,0.1651611c17.1159668-0.8564453,34.2730713-5.3603516,51.7368164-6.1967773
			c50.6875-2.4279785,98.7940674-3.8620605,108.0109863-0.4141846
			C1709.3997803,1518.5084229,1709.993042,1528.1827393,1709.993042,1528.1827393z"/><g><path fill="#514593" d="M1360.6763916,1623.4645996c-22.3155518-6.0837402-85.7185059-2.5776367-96.2443848,0
				c-10.5258789,2.5777588-25.262085,10.9984131-25.262085,26.7872314s13.1572266,28.6829834,28.1567383,29.9987793
				c14.9993896,1.3156738,69.0710449,4.2103271,79.138916,0c10.0678711-4.2104492,26.0518799-10.5437012,26.2421875-29.1949463
				C1372.8980713,1632.404541,1369.7703857,1625.9438477,1360.6763916,1623.4645996z"/><path fill="#5777fa" d="M1369.5335693,1623.4645996c-22.3156738-6.0837402-85.7185059-2.5776367-96.2443848,0
				c-10.5258789,2.5777588-25.262085,10.9984131-25.262085,26.7872314s13.1573486,28.6829834,28.1567383,29.9987793
				c14.9993896,1.3156738,79.414917,3.7734375,89.4829102-0.4368896s22.4147949-13.1558838,20.7741699-30.3928223
				C1385.0010986,1634.2928467,1378.6275635,1625.9438477,1369.5335693,1623.4645996z"/><path fill="#514593" d="M1317.7716064,1664.9996338c-0.6381836-0.524292-1.0373535-1.3293457-1.0234375-2.2467041
				l0.3599854-25.456665c0.0231934-1.6484375,1.3656006-3.0319824,2.9967041-3.0904541
				c1.6339111-0.0588379,2.9365234,1.229248,2.9130859,2.8751221l-0.3599854,25.456543
				c-0.0233154,1.6485596-1.3656006,3.0321045-2.9967041,3.0905762
				C1318.9375,1665.654541,1318.2788086,1665.4162598,1317.7716064,1664.9996338z"/><path fill="#514593" d="M1293.7563477,1664.9996338c-0.6383057-0.524292-1.0373535-1.3293457-1.0235596-2.2467041
				l0.3598633-25.456665c0.0233154-1.6484375,1.3657227-3.0319824,2.9969482-3.0904541
				c1.6339111-0.0588379,2.9365234,1.229248,2.9129639,2.8751221l-0.3598633,25.456543
				c-0.0233154,1.6485596-1.3657227,3.0321045-2.9969482,3.0905762
				C1294.9221191,1665.654541,1294.2635498,1665.4162598,1293.7563477,1664.9996338z"/></g><g><path fill="#514593" d="M1572.2519531,1623.8292236c22.3155518-6.0837402,85.7185059-2.5776367,96.2443848,0
				s25.262085,10.9984131,25.262085,26.7872314c0,15.7886963-13.1573486,28.6829834-28.1567383,29.9987793
				c-14.9993896,1.3156738-69.0710449,4.2102051-79.1390381,0c-10.0678711-4.2104492-26.0518799-10.5437012-26.2421875-29.1949463
				S1563.157959,1626.3083496,1572.2519531,1623.8292236z"/><path fill="#5777fa" d="M1563.3946533,1623.8292236c22.3157959-6.0837402,85.7185059-2.5776367,96.2445068,0
				c10.5258789,2.5776367,25.262085,10.9984131,25.262085,26.7872314c0,15.7886963-13.1573486,28.6829834-28.1567383,29.9987793
				c-14.9993896,1.3156738-79.4150391,3.7734375-89.4830322-0.4368896
				c-10.0678711-4.2103271-22.4146729-13.1558838-20.7740479-30.3928223
				C1547.9272461,1634.6574707,1554.3006592,1626.3083496,1563.3946533,1623.8292236z"/><path fill="#514593" d="M1615.1567383,1665.3642578c0.6381836-0.5244141,1.0372314-1.3293457,1.0233154-2.2467041
				l-0.3598633-25.456543c-0.0233154-1.6485596-1.3657227-3.0321045-2.9968262-3.0905762
				c-1.6339111-0.0588379-2.9365234,1.229248-2.9130859,2.8751221l0.3599854,25.456543
				c0.0233154,1.6485596,1.3657227,3.0321045,2.9968262,3.0904541
				C1613.9908447,1666.019043,1614.6495361,1665.7807617,1615.1567383,1665.3642578z"/><path fill="#514593" d="M1639.1719971,1665.3642578c0.6383057-0.5244141,1.0373535-1.3293457,1.0235596-2.2467041
				l-0.3599854-25.456543c-0.0233154-1.6485596-1.3657227-3.0321045-2.9968262-3.0905762
				c-1.6339111-0.0588379-2.9365234,1.229248-2.9130859,2.8751221l0.3599854,25.456543
				c0.0233154,1.6485596,1.3656006,3.0321045,2.9968262,3.0904541
				C1638.0062256,1666.019043,1638.6647949,1665.7807617,1639.1719971,1665.3642578z"/></g><path fill="#d6798e" d="M1540.4049072,1619.8532715c0,0,31.234375,3.9454346,35.1798096,8.5483398
			c3.9454346,4.6030273,6.5756836,10.8498535,6.5756836,17.0968018c0,6.2468262-3.2878418,18.7407227-18.7407227,18.4118652
			c-15.4527588-0.3287354-48.0023193-3.9454346-52.6053467-8.5483398L1540.4049072,1619.8532715z"/><path fill="#2e234f" d="M1280.9522705,1546.980835c16.0935059,30.5217285,92.7878418,79.1477051,115.0811768,90.6708984
			c3.1621094,1.6384277,7.7059326,3.5871582,13.2062988,5.7305908c10.1502686,3.9326172,23.5687256,8.5028076,37.5897217,12.8693848
			c4.7121582,1.4615479,9.486084,2.9051514,14.2335205,4.2868652c27.4572754,8.0335693,53.8161621,14.2335205,59.4847412,12.4709473
			c11.142334-3.4543457,30.2648926-23.0551758,34.5340576-33.8166504c1.5323486-3.8618164,2.7104492-8.5029297,3.3126221-13.3477783
			c0.3896484-3.1088867,0.5404053-6.3062744,0.4162598-9.4151611c-0.2391357-5.5268555-1.3815918-10.796875-3.7288818-14.8977051
			c-5.7127686-9.9909668-16.1199951-41.9654541-48.2803955-57.8728027
			c-3.7908936-1.8776855-8.4321289-4.1185303-13.7375488-6.6429443
			c-45.446167-21.5229492-139.9787598-62.7441406-173.2727051-60.6362305
			C1282.6175537,1478.727417,1264.8588867,1516.4678955,1280.9522705,1546.980835z"/><path fill="#1c143a" d="M1444.7302246,1654.072876l2.0992432,2.178833l6.3328857,6.5721436
			c2.4001465-0.6643066,5.0396729-1.4260254,7.9006348-2.2852783c27.4572754,8.0335693,53.8161621,14.2335205,59.4847412,12.4709473
			c11.142334-3.4543457,30.2648926-23.0551758,34.5340576-33.8166504c1.5323486-3.8618164,2.7104492-8.5029297,3.3126221-13.3477783
			c5.0307617-2.0195312,10.0883789-4.0743408,15.145752-6.1645508l4.0653076-9.4506836l-18.7947998,6.2000732
			L1444.7302246,1654.072876z"/><path fill="#1c143a" d="M1474.0611572,1578.0096436c-0.6362305,0-1.2788086-0.1888428-1.8389893-0.5831299
			c-36.2893066-25.5015869-96.4632568-47.4815674-97.0671387-47.7006836
			c-1.6638184-0.6038818-2.5222168-2.4418945-1.9193115-4.1055908c0.6038818-1.6636963,2.4418945-2.5212402,4.1055908-1.9193115
			c0.6112061,0.222168,61.5727539,22.4859619,98.5650635,48.4830322c1.447876,1.0169678,1.7973633,3.0155029,0.7791748,4.4633789
			C1476.0617676,1577.5350342,1475.0698242,1578.0096436,1474.0611572,1578.0096436z"/><path fill="#ffc5cd" d="M1351.6811523,1654.0509033c2.9580078,7.2275391,20.3891602,15.9959717,33.2054443,11.9394531
			c4.7739258-1.5057373,14.2775879-5.9608154,24.3305664-10.96521
			c10.9031982-5.4116211,22.4528809-11.4610596,29.3171387-15.1014404c3.8175049-2.0281982,6.1914062-3.3037109,6.1914062-3.3037109
			l-32.5500488-40.1141357c0,0-1.125,0.6641846-3.0648193,1.8068848
			c-4.2071533,2.4888916-12.2052002,7.2540283-20.725708,12.4443359
			c-13.3123779,8.0866699-27.8823242,17.2182617-31.1153564,20.2741699
			C1351.0256348,1636.9477539,1348.7226562,1646.8145752,1351.6811523,1654.0509033z"/><path fill="#d6798e" d="M1388.3851318,1610.7570801c0.5756836,6.8288574,2.3295898,18.2457275,7.6524658,26.8903809
			c4.083252,6.6428223,9.1496582,12.8516846,13.1795654,17.3776855
			c10.9031982-5.4116211,22.4528809-11.4610596,29.3171387-15.1014404l-29.4234619-41.6109619
			C1404.9036865,1600.8016357,1396.9056396,1605.5667725,1388.3851318,1610.7570801z"/><path fill="#2e234f" d="M1409.2397461,1643.3823242c8.9012451,12.7631836,20.6192627,22.6123047,29.0690918,22.6123047
			c2.2408447,0,7.4223633-1.1247559,14.8535156-3.1707764c2.4001465-0.6643066,5.0396729-1.4260254,7.9006348-2.2852783
			c22.8602295-6.8288574,59.3431396-19.5123291,97.3314209-34.6934814
			c5.0307617-2.0195312,10.0883789-4.0743408,15.145752-6.1645508c59.6000977-24.6495361,118.3760986-48.873291,131.4227295-70.8125
			c9.6188965-16.1644287,5.2169189-41.0980225-1.1158447-50.902832
			c-8.1308594-12.5949707-27.0411377-21.9923096-57.2706299-21.5760498
			c-29.5827637,0.4163818-96.6584473,30.2915039-153.5125732,60.6273193
			c-46.4291992,24.7823486-94.3583984,54.4613037-98.1280518,65.6447754
			C1392.1412354,1610.9521484,1398.4781494,1627.9354248,1409.2397461,1643.3823242z"/><path fill="#1c143a" d="M1394.2758789,1610.3873291c-1.7700195,0-3.2043457-1.4343262-3.2043457-3.2044678
			c0-6.2762451,1.7993164-8.5450439,3.9741211-10.6677246l0.1929932-0.1888428
			c17.0921631-16.8135986,95.564209-59.105835,98.8968506-60.8989258c1.5594482-0.8365479,3.501709-0.253418,4.340332,1.3049316
			c0.8375244,1.5583496,0.253418,3.5015869-1.3049316,4.340332c-0.8083496,0.4338379-80.9941406,43.6461182-97.4384766,59.8225098
			l-0.2087402,0.2054443c-1.230835,1.2005615-2.043335,1.9943848-2.043335,6.0822754
			C1397.4803467,1608.9530029,1396.0461426,1610.3873291,1394.2758789,1610.3873291z"/></g><path fill="#ffc5cd" d="M1596.2230225,1438.1586914c2.3236084,4.6877441-153.8082275,50.9257812-170.8178711,41.3640137
		c-3.3300781-1.8719482-26.467041-8.2294922-46.3383789-13.3863525c-5.4451904-1.4130859-8.3565674,6.1264648-3.3911133,8.7705078
		c6.2034912,3.3033447,12.3664551,6.0350342,17.0229492,6.8867188c0.5450439,2.050415-9.7768555,4.1420898-16.7446289,3.8056641
		c-3.6264648-0.175415-21.0408936-0.0374756-36.9085693,0.1348877c-4.9862061,0.0543213-5.9998779,7.0773926-1.2327881,8.5405273
		l0,0l45.2753906,3.4090576l-45.3547363,12.1394043c-4.7493896,1.2712402-4.2412109,8.168335,0.6435547,8.7294922l0,0
		l45.2341309-8.5169678l-36.5111084,19.3927002c-4.6151123,2.4512939-2.4688721,9.4716797,2.7279053,8.9230957l0,0
		l41.5152588-17.0231934l-23.5526123,21.7976074c-2.9118652,2.6949463,0.6087646,7.2718506,3.9593506,5.1470947
		c0.0910645-0.0577393,0.1816406-0.1156006,0.2720947-0.173584c13.5656738-8.682373,26.5419922-19.6599121,28.0372314-19.7573242
		c2.5650635-0.166748,17.4125977-3.7056885,32.272583-11.2105713
		c18.5892334-9.3880615,139.6651611-26.9812012,195.0562744-34.6671143
		c15.3063965-2.1239014,26.0736084-16.1282959,24.2047119-31.4677734l-10.5736084-86.791748l-61.246582,10.9532471
		C1579.7724609,1375.1580811,1590.5268555,1426.6671143,1596.2230225,1438.1586914z"/><path fill="#5777fa" d="M1562.5383301,1204.7825928c22.442627,10.4700928,62.7275391,29.6584473,74.6599121,62.4630127
		c6.6879883,18.387207,27.8485107,113.4224854,24.0422363,120.5024414
		c-3.8061523,7.0800781-72.0661621,30.2095947-88.6201172,22.7479248
		c-16.553833-7.4616699-34.6783447-128.6749268-28.4888916-153.4708252
		C1550.3210449,1232.2293701,1562.5383301,1204.7825928,1562.5383301,1204.7825928z"/><g><path fill="#e23961" d="M1487.3575439,1550.7591553h-77.8642578c-2.880127,0-5.2149658-2.3349609-5.2149658-5.21521v-0.7104492
			c0-2.880249,2.3348389-5.2150879,5.2149658-5.2150879h77.8642578c2.880249,0,5.2150879,2.3348389,5.2150879,5.2150879v0.7104492
			C1492.5726318,1548.4241943,1490.237793,1550.7591553,1487.3575439,1550.7591553z"/><path fill="#ed4a71" d="M1419.7851562,1550.7591553h-167.4912109c-3.838501,0-7.2590332-2.4981689-8.5333252-6.2321777
			l-39.3273926-115.2333984c-2.855835-8.3677979,3.1644287-17.1350098,11.7661133-17.1350098h153.2000732
			c5.2905273,0,10.0056152,3.4417725,11.7644043,8.5875244l42.5042725,124.3555908
			C1424.6121826,1547.8638916,1422.6251221,1550.7591553,1419.7851562,1550.7591553z"/><path fill="#ff6483" d="M1412.9040527,1550.7591553h-167.491333c-3.8383789,0-7.2589111-2.4981689-8.5333252-6.2321777
			l-39.3273926-115.2333984c-2.855835-8.3677979,3.1645508-17.1350098,11.7663574-17.1350098h153.1999512
			c5.2905273,0,10.0054932,3.4417725,11.7642822,8.5875244l42.5042725,124.3555908
			C1417.730957,1547.8638916,1415.7438965,1550.7591553,1412.9040527,1550.7591553z"/><path fill="#f99bb2" d="M1288.4735107,1472.9750977c1.7539062-1.3206787,4.0738525,1.1010742,8.3392334-0.3531494
			c3.6654053-1.2495117,4.1083984-3.7731934,5.9091797-3.6575928c4.9709473,0.3190918,9.192627,20.0390625,5.1972656,22.269165
			c-1.7194824,0.9597168-3.805542-1.9650879-7.5655518-0.9844971c-3.2220459,0.840332-3.6235352,3.4921875-5.4632568,3.5015869
			C1290.1235352,1493.7751465,1284.4404297,1476.012207,1288.4735107,1472.9750977z"/></g></g></svg>